<svg width="363" height="82" viewBox="0 0 363 82" fill="none" xmlns="http://www.w3.org/2000/svg">
<ellipse opacity="0.2" cx="331.725" cy="75.7338" rx="30.033" ry="5.67237" fill="#868481"/>
<g filter="url(#filter0_d_5977_5065)">
<path d="M354.176 48.3231C353.01 51.8052 348.773 65.5116 336.594 68.658C333.044 69.4798 329.333 69.5147 325.698 68.7605C322.063 68.0064 318.584 66.4796 315.481 64.2773C312.119 61.7381 309.308 58.4761 307.254 54.7287C308.265 58.1124 309.875 61.2677 311.975 64.0386C313.584 66.1623 315.482 68.0601 317.619 69.6619C322.545 73.3535 328.451 75.2541 334.373 75.0533C340.295 74.8525 345.883 72.5622 350.224 68.5564C354.565 64.5505 357.402 59.0661 358.272 52.9988C359.282 44.5777 358.166 35.9151 355.529 27.7045C355.607 28.2462 355.676 28.7884 355.738 29.3309C356.471 35.75 356.117 42.2111 354.282 48.2676" fill="#D9D2CE"/>
<path d="M327.359 26.1079L326.67 26.4688C323.763 27.4886 319.882 26.3617 318.715 24.1008C317.052 20.8791 322.49 16.0213 323.953 14.681C325.571 13.2403 327.346 11.9979 329.245 10.9764C331.683 9.69964 333.931 9.0971 334.832 10.061C335.734 11.0249 334.314 14.9274 332.335 19.0509C330.356 23.1744 329.403 25.1098 327.441 26.1367" fill="white"/>
<path fill-rule="evenodd" clip-rule="evenodd" d="M306.645 52.7639C307.867 58.5816 310.863 63.9339 315.202 67.9933C319.981 72.4652 326.069 75.069 332.351 75.3279C338.634 75.5869 344.69 73.4837 349.412 69.4034C354.133 65.3231 357.203 59.5388 358.06 53.1097C360.195 38.8527 354.931 18.347 344.865 10.1922C344.901 10.2904 344.937 10.3888 344.972 10.4872C342.876 8.69808 340.564 7.44871 338.06 6.91447C323.836 3.88032 308.802 25.107 306.233 42.1759C305.702 45.6668 305.842 49.2645 306.645 52.7639ZM306.645 52.7639L306.647 52.7712C307.451 56.2728 308.904 59.6073 310.922 62.5842C311.258 63.0808 311.609 63.5658 311.975 64.0386C313.799 66.3999 315.971 68.4556 318.407 70.1211C321.331 72.12 324.578 73.5177 327.963 74.2343C331.348 74.951 334.804 74.9725 338.135 74.2978C341.465 73.623 344.605 72.2652 347.374 70.3018C350.143 68.3383 352.488 65.8078 354.274 62.8546C356.06 59.9014 357.253 56.5835 357.784 53.0901C358.836 45.9707 358.048 37.2702 355.738 29.3309C353.492 21.6127 349.807 14.6141 344.972 10.4872C347.335 17.0243 348.285 23.9622 347.754 30.7927C347.524 34.0003 345.921 55.1585 332.102 59.9535C328.34 60.991 324.348 61.0437 320.474 60.1071C316.599 59.1705 312.959 57.2729 309.87 54.5792C308.594 53.4856 307.408 52.2802 306.328 50.9774C306.415 51.5772 306.521 52.1729 306.645 52.7639Z" fill="white"/>
<path d="M306.647 52.7712C307.451 56.2728 308.904 59.6073 310.922 62.5842C311.258 63.0808 311.609 63.5658 311.975 64.0386C313.799 66.3999 315.971 68.4556 318.407 70.1211C321.331 72.12 324.578 73.5177 327.963 74.2343C331.348 74.951 334.804 74.9725 338.135 74.2978C341.465 73.623 344.605 72.2652 347.374 70.3018C350.143 68.3383 352.488 65.8078 354.274 62.8546C356.06 59.9014 357.253 56.5835 357.784 53.0901C358.836 45.9707 358.048 37.2702 355.738 29.3309C353.492 21.6127 349.807 14.6141 344.972 10.4872C347.335 17.0243 348.285 23.9622 347.754 30.7927C347.524 34.0003 345.921 55.1585 332.102 59.9535C328.34 60.991 324.348 61.0437 320.474 60.1071C316.599 59.1705 312.959 57.2729 309.87 54.5792C308.594 53.4856 307.408 52.2802 306.328 50.9774C306.415 51.5772 306.521 52.1729 306.645 52.7639L306.647 52.7712Z" fill="white"/>
</g>
<path d="M330.508 15.6814C332.653 15.8676 336.724 15.6906 339.206 12.7194C339.752 12.066 340.583 10.2364 340.575 10.328L339.909 11.6002C344.545 11.5982 351.257 17.7864 351.257 17.7864C351.257 17.7864 352.211 16.7315 352.312 15.5762C352.637 11.8281 350.252 9.13944 347.14 8.86919C347.695 5.78839 345.279 2.95312 341.746 2.64639C340.44 2.53309 338.409 2.96812 337.551 4.15241C336.926 2.22801 333.903 0.311225 331.286 0.0840534C326.629 -0.320296 323.153 2.53613 322.769 6.95258C322.386 11.369 325.851 15.2771 330.508 15.6814Z" fill="#DA0813"/>
<path d="M322.295 43.1426C319.883 35.0248 325.424 32.014 330.194 29.4536C325.866 33.824 328.775 37.1845 328.235 39.4725C327.694 41.7606 325.406 41.2202 322.295 43.1426Z" fill="#DA0813"/>
<path d="M343.552 43.392C346.478 35.4452 341.141 32.0861 336.544 29.2258C340.584 33.8641 337.466 37.0316 337.859 39.3495C338.252 41.6675 340.57 41.2746 343.552 43.392Z" fill="#DA0813"/>
<g filter="url(#filter1_d_5977_5065)">
<path d="M332.202 26.3322C332.156 27.2638 331.938 28.1583 331.549 29.0083C331.161 29.8583 330.632 30.6008 329.963 31.2287C329.294 31.8565 328.536 32.3362 327.681 32.6531C326.834 32.9703 325.961 33.1067 325.055 33.0618C324.156 33.0173 323.293 32.7949 322.481 32.3955C321.669 31.9961 320.955 31.4434 320.352 30.7526C319.748 30.0618 319.295 29.2706 318.992 28.3863C318.69 27.5021 318.561 26.5905 318.608 25.6588C318.654 24.72 318.872 23.8256 319.26 22.9755C319.649 22.1327 320.178 21.3902 320.847 20.7552C321.516 20.1273 322.281 19.6552 323.128 19.3379C323.976 19.0207 324.856 18.8847 325.755 18.9292C326.661 18.9741 327.516 19.196 328.328 19.5955C329.147 19.9952 329.855 20.5404 330.458 21.2312C331.061 21.9292 331.514 22.7204 331.817 23.5975C332.12 24.4818 332.248 25.3933 332.202 26.3322Z" fill="url(#paint0_radial_5977_5065)"/>
</g>
<g filter="url(#filter2_d_5977_5065)">
<path d="M350.697 27.3668C350.652 28.27 350.441 29.1371 350.065 29.9611C349.688 30.7851 349.175 31.5049 348.527 32.1135C347.878 32.7221 347.136 33.1868 346.315 33.4943C345.493 33.8019 344.64 33.9337 343.769 33.8905C342.897 33.8474 342.061 33.6319 341.274 33.2447C340.48 32.8571 339.794 32.3217 339.209 31.652C338.624 30.9823 338.185 30.2154 337.892 29.3582C337.598 28.5009 337.474 27.6173 337.519 26.7141C337.564 25.804 337.775 24.9369 338.151 24.1129C338.528 23.2958 339.041 22.576 339.689 21.9605C340.338 21.3519 341.073 20.8938 341.901 20.5866C342.723 20.2791 343.576 20.1472 344.447 20.1904C345.319 20.2335 346.155 20.4491 346.942 20.8363C347.729 21.2235 348.422 21.7523 349.007 22.422C349.591 23.0986 350.031 23.8655 350.324 24.7158C350.618 25.5731 350.742 26.4567 350.697 27.3668Z" fill="url(#paint1_radial_5977_5065)"/>
</g>
<circle cx="323.477" cy="25.3181" r="2.03066" transform="rotate(2.83553 323.477 25.3181)" fill="black"/>
<circle cx="342.238" cy="26.3838" r="1.96853" transform="rotate(2.83553 342.238 26.3838)" fill="black"/>
<path d="M328.635 38.1913C329.192 35.993 330.932 34.9926 333.565 35.1231C336.198 35.2535 337.831 36.4209 338.168 38.6635C338.568 41.3221 333.156 45.0945 333.156 45.0945C333.156 45.0945 327.975 40.7974 328.635 38.1913Z" fill="#CB6700"/>
<path d="M340.805 36.3264C340.598 40.5107 333.312 42.2684 333.312 42.2684C333.312 42.2684 326.035 39.7894 326.242 35.6051C326.449 31.4246 329.876 28.1964 333.899 28.3956C337.921 28.5948 341.012 32.1459 340.805 36.3264Z" fill="#F4900C"/>
<path d="M349.738 21.075C349.209 20.5767 347.839 19.7586 346.564 19.7586" stroke="black" stroke-linecap="round"/>
<path d="M319.392 20.0883C319.922 19.59 321.292 18.7719 322.566 18.7719" stroke="black" stroke-linecap="round"/>
<path opacity="0.4" d="M349.416 62.4755C347.591 63.3839 345.437 61.6311 345.437 61.6311C343.641 67.4752 340.809 64.2956 340.809 64.2956C339.337 70.7918 335.573 65.7705 335.573 65.7705C332.377 71.2966 329.785 66.2004 329.785 66.2004C326.686 70.9699 323.93 65.7461 323.93 65.7461C323.93 65.7461 319.329 65.0795 316.867 59.3762C316.469 58.4599 315.918 58.2283 315.772 57.013C315.893 56.5692 316.329 54.9003 316.47 54.4526C319.884 58.8826 325.899 61.2499 331.907 61.351C339.73 61.4826 345.576 58.8244 349.131 56.7353C349.377 58.6905 349.476 60.6293 349.416 62.4755Z" fill="url(#paint2_radial_5977_5065)"/>
<path opacity="0.6" d="M355.367 55.3696C352.896 56.5995 349.979 54.2264 349.979 54.2264C347.548 62.1388 343.714 57.8339 343.714 57.8339C341.72 66.6293 336.624 59.8308 336.624 59.8308C332.297 67.3127 328.788 60.4129 328.788 60.4129C324.592 66.8705 320.86 59.7978 320.86 59.7978C320.86 59.7978 314.631 58.8952 311.298 51.1733C310.759 49.9328 310.012 49.6192 309.815 47.9738C309.979 47.3729 310.569 45.1133 310.76 44.5072C315.382 50.505 323.526 53.7102 331.66 53.847C342.253 54.0253 350.167 50.4263 354.981 47.5978C355.314 50.245 355.448 52.87 355.367 55.3696Z" fill="url(#paint3_radial_5977_5065)"/>
<path opacity="0.8" d="M358.571 48.1403C355.752 49.5433 352.425 46.8362 352.425 46.8362C349.651 55.8624 345.278 50.9515 345.278 50.9515C343.004 60.9849 337.19 53.2294 337.19 53.2294C332.254 61.7645 328.25 53.8935 328.25 53.8935C323.464 61.26 319.207 53.1918 319.207 53.1918C319.207 53.1918 312.101 52.1622 308.299 43.3534C307.684 41.9383 306.833 41.5806 306.607 39.7036C306.794 39.0181 307.468 36.4404 307.685 35.749C312.958 42.591 322.248 46.2474 331.527 46.4035C343.611 46.6068 352.64 42.5012 358.131 39.2746C358.511 42.2944 358.664 45.2889 358.571 48.1403Z" fill="url(#paint4_radial_5977_5065)"/>
<g filter="url(#filter3_d_5977_5065)">
<path d="M345.604 72.3557C346.425 71.9024 347.221 71.4024 347.99 70.8573C350.854 68.8269 353.278 66.21 355.125 63.1561C356.973 60.1022 358.206 56.671 358.755 53.0585C359.151 50.3773 359.295 47.4792 359.202 44.4812L345.604 51.86C344.548 59.8587 344.597 64.3552 345.604 72.3557Z" fill="#D68F00"/>
</g>
<g filter="url(#filter4_d_5977_5065)">
<path d="M305.937 42.4178C305.388 46.0303 305.533 49.7534 306.365 53.3745C307.197 56.9956 308.699 60.4438 310.786 63.5222C312.872 66.6007 315.503 69.2491 318.526 71.3162C318.526 71.3162 320.761 57.364 318.526 49.8016L306.486 39.4883C306.266 40.4744 306.082 41.4525 305.937 42.4178Z" fill="#D68F00"/>
</g>
<g filter="url(#filter5_d_5977_5065)">
<path d="M358.626 40.4106C359.263 41.5056 360.107 42.7645 359.545 45.1336C358.15 51.0147 350.415 59.5328 349.486 55.463C348.608 51.6147 343.914 55.4631 343.914 52.9169C346.436 49.008 350.348 45.8362 358.626 40.4106Z" fill="#F4AD1D"/>
</g>
<g filter="url(#filter6_d_5977_5065)">
<path d="M306.546 39.278C305.91 40.373 305.066 41.6319 305.628 44.001C307.022 49.8821 314.758 58.4002 315.687 54.3304C316.565 50.4821 321.259 54.3306 321.259 51.7843C318.737 47.8754 314.825 44.7037 306.546 39.278Z" fill="#F4AD1D"/>
</g>
<circle cx="347.55" cy="58.0058" r="0.720148" fill="#884400"/>
<circle cx="347.55" cy="64.2128" r="0.720148" fill="#884400"/>
<rect x="302.446" y="39.3416" width="3.8791" height="4.16785" transform="rotate(-17.673 302.446 39.3416)" fill="#565C6B"/>
<path d="M303.092 42.9149C303.261 45.695 303.643 48.9603 304.022 51.8966L305.174 60.8123C305.628 64.3559 306.148 68.4012 309.329 69.9471C310.839 70.681 312.623 70.8586 314.349 70.3087C316.075 69.7587 317.428 68.5818 318.235 67.1094C319.935 64.0079 318.018 60.4069 316.339 57.2526L316.174 56.9423L312.121 49.3159C310.712 46.6646 309.157 43.9442 307.647 41.4636L303.092 42.9149Z" fill="#2E3443"/>
<g filter="url(#filter7_b_5977_5065)">
<circle cx="299.019" cy="22.1947" r="18.3888" transform="rotate(-17.673 299.019 22.1947)" fill="#D9D9D9" fill-opacity="0.3"/>
<circle cx="299.019" cy="22.1947" r="16.8888" transform="rotate(-17.673 299.019 22.1947)" stroke="#2E3443" stroke-width="3"/>
</g>
<ellipse cx="304.379" cy="53.6501" rx="2.38001" ry="3.58744" transform="rotate(-15.6168 304.379 53.6501)" fill="white"/>
<path d="M135.264 54.2501C130.354 44.7185 117.397 34.7063 109.883 38.7897C102.369 42.8731 103.141 59.4045 108.019 68.8594C108.936 70.9128 110.241 72.7629 111.85 74.2898C113.458 75.8166 115.334 76.9861 117.355 77.7226C119.377 78.4591 121.499 78.7461 123.585 78.565C125.67 78.3839 127.673 77.7388 129.463 76.6715C131.333 75.7661 132.981 74.4462 134.303 72.7964C135.624 71.1466 136.589 69.2035 137.135 67.0919C137.682 64.9804 137.797 62.747 137.475 60.5354C137.153 58.3238 136.399 56.1828 135.264 54.2501Z" fill="white"/>
<path d="M114.014 37.8696C117.473 40.2654 120.431 43.4104 122.678 47.0807C123.71 48.8058 130.505 60.0279 125.932 67.7858C124.606 69.7757 122.819 71.3631 120.729 72.4079C118.639 73.4528 116.309 73.9231 113.945 73.7773C112.983 73.7405 112.022 73.592 111.079 73.3344C113.441 76.0006 116.55 77.784 119.892 78.3906C123.234 78.9973 126.61 78.3909 129.463 76.6715C131.333 75.7661 132.981 74.4462 134.303 72.7964C135.624 71.1466 136.589 69.2035 137.135 67.0919C137.682 64.9804 137.797 62.747 137.475 60.5354C137.153 58.3238 136.399 56.1828 135.264 54.2501C131.166 46.3095 121.484 38.0487 114.014 37.8696Z" fill="#FAF4F1"/>
<path d="M131.753 53.4434C132.626 55.5905 135.305 64.1079 131.04 70.4894C129.003 73.3007 126.101 75.2631 122.791 76.067C119.482 76.8709 115.953 76.4706 112.761 74.9293C115.156 76.9257 118.023 78.1509 120.994 78.4477C123.964 78.7445 126.903 78.0992 129.431 76.5947C131.302 75.6894 132.95 74.3695 134.272 72.7197C135.593 71.0699 136.558 69.1268 137.104 67.0152C137.651 64.9036 137.766 62.6703 137.444 60.4587C137.121 58.2471 136.368 56.1061 135.232 54.1733C132.743 49.6032 129.346 45.6256 125.291 42.5326C128.184 45.5895 130.415 49.2669 131.813 53.2851" fill="#D9D2CE"/>
<path d="M109.291 55.1163C108.947 55.2934 108.566 55.3875 108.176 55.392C107.785 55.3966 107.394 55.3115 107.028 55.1426C105.168 54.0226 105.861 49.6299 106.043 48.3495C106.502 45.6161 107.749 42.3831 108.955 41.8928C109.052 41.8023 109.177 41.7514 109.31 41.7486C110.328 41.9153 110.802 44.4033 111.508 47.1547C112.214 49.9062 112.51 51.7518 111.49 53.105C110.961 53.9846 110.183 54.6592 109.259 55.0396" fill="white"/>
<path d="M184.194 61.9142C183.448 52.1688 175.92 38.8355 167.926 39.1926C159.932 39.5498 154.534 53.3783 155.283 63.0487C155.322 65.0925 155.771 67.1239 156.602 69.0112C157.432 70.8985 158.624 72.5998 160.101 74.0047C161.579 75.4097 163.308 76.4869 165.178 77.1668C167.047 77.8467 169.015 78.114 170.954 77.9514C172.902 77.9533 174.812 77.5281 176.56 76.7032C178.307 75.8783 179.854 74.672 181.101 73.1616C182.348 71.6513 183.268 69.8704 183.8 67.9334C184.333 65.9964 184.467 63.9461 184.194 61.9142Z" fill="white"/>
<path d="M171.834 40.0797C173.946 43.4126 175.349 47.1594 175.945 51.0535C176.204 52.8743 177.961 64.7512 171.161 69.2814C169.285 70.3829 167.158 70.972 164.968 70.9968C162.777 71.0217 160.591 70.4815 158.601 69.4239C157.783 69.0118 157.006 68.5088 156.286 67.9238C157.35 71.0424 159.383 73.7352 162.049 75.5581C164.716 77.3811 167.856 78.2252 170.954 77.9514C172.902 77.9533 174.812 77.5281 176.56 76.7032C178.307 75.8783 179.854 74.672 181.101 73.1616C182.348 71.6513 183.268 69.8704 183.8 67.9334C184.333 65.9964 184.467 63.9461 184.194 61.9142C183.566 53.7926 178.227 43.1919 171.834 40.0797Z" fill="#FAF4F1"/>
<path d="M181.456 59.8609C181.423 61.9638 180.614 69.9941 174.585 73.5208C171.793 75.0118 168.564 75.4649 165.408 74.8086C162.252 74.1522 159.348 72.4238 157.154 69.8959C158.493 72.48 160.522 74.6204 162.981 76.0423C165.44 77.4643 168.217 78.1029 170.955 77.8762C172.904 77.8781 174.813 77.4529 176.561 76.6281C178.308 75.8032 179.855 74.5968 181.102 73.0865C182.349 71.5761 183.269 69.7953 183.801 67.8582C184.334 65.9212 184.468 63.8709 184.196 61.8391C183.72 57.1125 182.243 52.5105 179.873 48.3709C181.252 52.0198 181.831 55.9133 181.566 59.7551" fill="#D9D2CE"/>
<path d="M161.424 52.312C161.061 52.3203 160.698 52.2462 160.359 52.0949C160.02 51.9436 159.712 51.7187 159.459 51.4355C158.261 49.7807 160.472 46.4628 161.099 45.4877C162.498 43.434 164.763 41.2847 165.985 41.3623C166.102 41.3268 166.229 41.3348 166.345 41.3851C167.164 41.9258 166.661 44.1492 166.262 46.68C165.862 49.2107 165.441 50.8379 164.063 51.5398C163.283 52.0494 162.363 52.2925 161.425 52.2369" fill="white"/>
<path d="M241.818 70.5498C248.615 60.2238 251.303 40.8135 242.967 34.5318C234.631 28.2501 218.421 37.5086 211.58 47.8367C210.177 49.9488 209.178 52.3339 208.641 54.8559C208.104 57.378 208.039 59.9875 208.451 62.5355C208.862 65.0835 209.741 67.5202 211.039 69.7063C212.336 71.8924 214.025 73.7851 216.011 75.2765C217.996 76.7679 220.238 77.8286 222.61 78.3982C224.981 78.9678 227.435 79.0351 229.832 78.5962C232.228 78.1572 234.52 77.2208 236.576 75.8402C238.633 74.4596 240.414 72.6619 241.818 70.5498Z" fill="white"/>
<path d="M246.143 38.6331C245.726 43.6817 244.235 48.5641 241.784 52.912C240.664 54.9295 233.213 68.2108 222.769 67.1459C220.007 66.6816 217.394 65.5071 215.157 63.7243C212.919 61.9416 211.126 59.6046 209.931 56.9164C209.432 55.8183 209.026 54.675 208.717 53.5001C207.362 58.0176 207.583 62.9021 209.338 67.259C211.094 71.616 214.266 75.1539 218.276 77.225C222.285 79.296 226.863 79.7616 231.17 78.5365C235.478 77.3114 239.227 74.4775 241.732 70.5539C247.439 61.924 250.223 46.9876 246.143 38.6331Z" fill="#FAF4F1"/>
<path d="M240.654 66.2631C238.841 68.1759 231.933 75.8109 223.056 74.17C220.497 73.6295 218.072 72.5284 215.936 70.937C213.799 69.3455 211.997 67.2984 210.646 64.9259C209.227 62.2554 208.386 59.2817 208.184 56.2214C207.536 60.6513 208.319 65.1832 210.406 69.0768C212.493 72.9705 215.76 75.9958 219.674 77.6586C223.588 79.3213 227.918 79.5232 231.955 78.2314C235.993 76.9395 239.5 74.2302 241.903 70.546C245.111 65.3726 247.177 59.4957 247.948 53.3548C246.488 58.1772 244.024 62.588 240.74 66.2591" fill="#D9D2CE"/>
<path d="M229.933 43.6875L229.375 43.7136C227.175 43.4968 224.991 41.5883 224.917 39.7638C224.81 37.164 229.82 35.65 231.177 35.2209C232.666 34.7736 234.198 34.5027 235.743 34.4132C237.716 34.3208 239.361 34.6094 239.655 35.5096C239.95 36.4097 237.844 38.519 235.308 40.6027C232.772 42.6864 231.565 43.6569 229.978 43.7312" fill="white"/>
<defs>
<filter id="filter0_d_5977_5065" x="303.917" y="4.62256" width="56.7231" height="72.7267" filterUnits="userSpaceOnUse" color-interpolation-filters="sRGB">
<feFlood flood-opacity="0" result="BackgroundImageFix"/>
<feColorMatrix in="SourceAlpha" type="matrix" values="0 0 0 0 0 0 0 0 0 0 0 0 0 0 0 0 0 0 127 0" result="hardAlpha"/>
<feOffset/>
<feGaussianBlur stdDeviation="1"/>
<feComposite in2="hardAlpha" operator="out"/>
<feColorMatrix type="matrix" values="0 0 0 0 0 0 0 0 0 0 0 0 0 0 0 0 0 0 0.25 0"/>
<feBlend mode="normal" in2="BackgroundImageFix" result="effect1_dropShadow_5977_5065"/>
<feBlend mode="normal" in="SourceGraphic" in2="effect1_dropShadow_5977_5065" result="shape"/>
</filter>
<filter id="filter1_d_5977_5065" x="317.598" y="17.921" width="15.6133" height="16.149" filterUnits="userSpaceOnUse" color-interpolation-filters="sRGB">
<feFlood flood-opacity="0" result="BackgroundImageFix"/>
<feColorMatrix in="SourceAlpha" type="matrix" values="0 0 0 0 0 0 0 0 0 0 0 0 0 0 0 0 0 0 127 0" result="hardAlpha"/>
<feOffset/>
<feGaussianBlur stdDeviation="0.5"/>
<feComposite in2="hardAlpha" operator="out"/>
<feColorMatrix type="matrix" values="0 0 0 0 0 0 0 0 0 0 0 0 0 0 0 0 0 0 0.16 0"/>
<feBlend mode="normal" in2="BackgroundImageFix" result="effect1_dropShadow_5977_5065"/>
<feBlend mode="normal" in="SourceGraphic" in2="effect1_dropShadow_5977_5065" result="shape"/>
</filter>
<filter id="filter2_d_5977_5065" x="336.51" y="19.1824" width="15.1963" height="15.7162" filterUnits="userSpaceOnUse" color-interpolation-filters="sRGB">
<feFlood flood-opacity="0" result="BackgroundImageFix"/>
<feColorMatrix in="SourceAlpha" type="matrix" values="0 0 0 0 0 0 0 0 0 0 0 0 0 0 0 0 0 0 127 0" result="hardAlpha"/>
<feOffset/>
<feGaussianBlur stdDeviation="0.5"/>
<feComposite in2="hardAlpha" operator="out"/>
<feColorMatrix type="matrix" values="0 0 0 0 0 0 0 0 0 0 0 0 0 0 0 0 0 0 0.16 0"/>
<feBlend mode="normal" in2="BackgroundImageFix" result="effect1_dropShadow_5977_5065"/>
<feBlend mode="normal" in="SourceGraphic" in2="effect1_dropShadow_5977_5065" result="shape"/>
</filter>
<filter id="filter3_d_5977_5065" x="342.831" y="42.4812" width="18.3989" height="31.8745" filterUnits="userSpaceOnUse" color-interpolation-filters="sRGB">
<feFlood flood-opacity="0" result="BackgroundImageFix"/>
<feColorMatrix in="SourceAlpha" type="matrix" values="0 0 0 0 0 0 0 0 0 0 0 0 0 0 0 0 0 0 127 0" result="hardAlpha"/>
<feOffset/>
<feGaussianBlur stdDeviation="1"/>
<feComposite in2="hardAlpha" operator="out"/>
<feColorMatrix type="matrix" values="0 0 0 0 0 0 0 0 0 0 0 0 0 0 0 0 0 0 0.25 0"/>
<feBlend mode="normal" in2="BackgroundImageFix" result="effect1_dropShadow_5977_5065"/>
<feBlend mode="normal" in="SourceGraphic" in2="effect1_dropShadow_5977_5065" result="shape"/>
</filter>
<filter id="filter4_d_5977_5065" x="303.611" y="37.4883" width="17.9087" height="35.8279" filterUnits="userSpaceOnUse" color-interpolation-filters="sRGB">
<feFlood flood-opacity="0" result="BackgroundImageFix"/>
<feColorMatrix in="SourceAlpha" type="matrix" values="0 0 0 0 0 0 0 0 0 0 0 0 0 0 0 0 0 0 127 0" result="hardAlpha"/>
<feOffset/>
<feGaussianBlur stdDeviation="1"/>
<feComposite in2="hardAlpha" operator="out"/>
<feColorMatrix type="matrix" values="0 0 0 0 0 0 0 0 0 0 0 0 0 0 0 0 0 0 0.25 0"/>
<feBlend mode="normal" in2="BackgroundImageFix" result="effect1_dropShadow_5977_5065"/>
<feBlend mode="normal" in="SourceGraphic" in2="effect1_dropShadow_5977_5065" result="shape"/>
</filter>
<filter id="filter5_d_5977_5065" x="340.914" y="38.4105" width="21.8154" height="22.1155" filterUnits="userSpaceOnUse" color-interpolation-filters="sRGB">
<feFlood flood-opacity="0" result="BackgroundImageFix"/>
<feColorMatrix in="SourceAlpha" type="matrix" values="0 0 0 0 0 0 0 0 0 0 0 0 0 0 0 0 0 0 127 0" result="hardAlpha"/>
<feOffset dy="1"/>
<feGaussianBlur stdDeviation="1.5"/>
<feComposite in2="hardAlpha" operator="out"/>
<feColorMatrix type="matrix" values="0 0 0 0 0 0 0 0 0 0 0 0 0 0 0 0 0 0 0.25 0"/>
<feBlend mode="normal" in2="BackgroundImageFix" result="effect1_dropShadow_5977_5065"/>
<feBlend mode="normal" in="SourceGraphic" in2="effect1_dropShadow_5977_5065" result="shape"/>
</filter>
<filter id="filter6_d_5977_5065" x="302.443" y="37.278" width="21.8154" height="22.1155" filterUnits="userSpaceOnUse" color-interpolation-filters="sRGB">
<feFlood flood-opacity="0" result="BackgroundImageFix"/>
<feColorMatrix in="SourceAlpha" type="matrix" values="0 0 0 0 0 0 0 0 0 0 0 0 0 0 0 0 0 0 127 0" result="hardAlpha"/>
<feOffset dy="1"/>
<feGaussianBlur stdDeviation="1.5"/>
<feComposite in2="hardAlpha" operator="out"/>
<feColorMatrix type="matrix" values="0 0 0 0 0 0 0 0 0 0 0 0 0 0 0 0 0 0 0.25 0"/>
<feBlend mode="normal" in2="BackgroundImageFix" result="effect1_dropShadow_5977_5065"/>
<feBlend mode="normal" in="SourceGraphic" in2="effect1_dropShadow_5977_5065" result="shape"/>
</filter>
<filter id="filter7_b_5977_5065" x="277.625" y="0.801025" width="42.7871" height="42.7875" filterUnits="userSpaceOnUse" color-interpolation-filters="sRGB">
<feFlood flood-opacity="0" result="BackgroundImageFix"/>
<feGaussianBlur in="BackgroundImageFix" stdDeviation="1.5"/>
<feComposite in2="SourceAlpha" operator="in" result="effect1_backgroundBlur_5977_5065"/>
<feBlend mode="normal" in="SourceGraphic" in2="effect1_backgroundBlur_5977_5065" result="shape"/>
</filter>
<radialGradient id="paint0_radial_5977_5065" cx="0" cy="0" r="1" gradientUnits="userSpaceOnUse" gradientTransform="translate(325.405 25.9955) rotate(92.8355) scale(7.07496 6.80552)">
<stop offset="0.675" stop-color="white"/>
<stop offset="0.98" stop-color="#EBEBEB"/>
<stop offset="1" stop-color="#CDCDCD"/>
</radialGradient>
<radialGradient id="paint1_radial_5977_5065" cx="0" cy="0" r="1" gradientUnits="userSpaceOnUse" gradientTransform="translate(344.108 27.0405) rotate(92.8355) scale(6.85848 6.59729)">
<stop offset="0.675" stop-color="white"/>
<stop offset="0.98" stop-color="#EBEBEB"/>
<stop offset="1" stop-color="#CDCDCD"/>
</radialGradient>
<radialGradient id="paint2_radial_5977_5065" cx="0" cy="0" r="1" gradientUnits="userSpaceOnUse" gradientTransform="translate(335.095 56.2164) rotate(90.6723) scale(13.585 33.0702)">
<stop offset="0.412132" stop-color="white"/>
<stop offset="1" stop-color="#EE8000"/>
</radialGradient>
<radialGradient id="paint3_radial_5977_5065" cx="0" cy="0" r="1" gradientUnits="userSpaceOnUse" gradientTransform="translate(335.977 46.8952) rotate(90.6723) scale(18.3931 44.7747)">
<stop offset="0.412132" stop-color="white"/>
<stop offset="1" stop-color="#EE8000"/>
</radialGradient>
<radialGradient id="paint4_radial_5977_5065" cx="0" cy="0" r="1" gradientUnits="userSpaceOnUse" gradientTransform="translate(336.452 38.4731) rotate(90.6723) scale(20.982 51.0769)">
<stop offset="0.412132" stop-color="white"/>
<stop offset="1" stop-color="#EE8000"/>
</radialGradient>
</defs>
</svg>
