<svg width="352" height="60" viewBox="0 0 352 60" fill="none" xmlns="http://www.w3.org/2000/svg">
<path d="M300.385 31.7495L304.032 26.1312L308.896 31.1879L315.38 27.8185L320.242 32.8752L326.727 22.7592L333.211 27.8185L338.075 26.1312L341.316 31.1879L346.181 26.1312L349.422 32.8752L346.181 44.6758L328.347 53.1045L310.516 49.7325L300.79 39.6191L300.385 31.7495Z" fill="#C9C0BC"/>
<path d="M344.488 23.9593C344.52 23.4772 344.56 22.9926 344.56 22.5003C344.56 12.4818 337.548 4.18645 328.355 2.5761C330.282 2.13762 331.648 1.71708 329.97 0.845241C328.162 -0.0958354 326.355 1.0632 325.109 2.27096H325.104C323.859 1.0632 322.053 -0.0958354 320.242 0.845241C318.565 1.71708 319.93 2.13762 321.858 2.57354C312.664 4.18388 305.655 12.4792 305.655 22.5003C305.655 22.9926 305.692 23.4772 305.724 23.9619C304.945 35.0881 295.508 51.4198 325.106 51.4198C354.706 51.4198 345.27 35.0881 344.488 23.9593Z" fill="#FFCC4D"/>
<path d="M329.97 22.7592C329.97 25.5543 327.793 26.1312 325.106 26.1312C322.419 26.1312 320.242 25.5543 320.242 22.7592C320.242 19.9668 322.419 17.7026 325.106 17.7026C327.793 17.7026 329.97 19.9668 329.97 22.7592Z" fill="#F4900C"/>
<path d="M317.001 18.5462C317.001 18.8795 316.939 19.2026 316.815 19.5129C316.692 19.8232 316.516 20.0976 316.288 20.3335C316.061 20.5694 315.798 20.754 315.499 20.8822C315.202 21.0104 314.893 21.0745 314.569 21.0745C314.247 21.0745 313.935 21.0104 313.639 20.8822C313.342 20.754 313.077 20.5694 312.849 20.3335C312.622 20.0976 312.446 19.8232 312.322 19.5129C312.199 19.2026 312.137 18.8795 312.137 18.5462C312.137 18.2103 312.199 17.8872 312.322 17.5769C312.446 17.2692 312.622 16.9948 312.849 16.7563C313.077 16.5204 313.342 16.3384 313.639 16.2102C313.935 16.082 314.247 16.0178 314.569 16.0178C314.893 16.0178 315.202 16.082 315.499 16.2102C315.798 16.3384 316.061 16.5204 316.288 16.7563C316.516 16.9948 316.692 17.2692 316.815 17.5769C316.939 17.8872 317.001 18.2103 317.001 18.5462Z" fill="black"/>
<path d="M338.075 18.5462C338.075 18.8795 338.014 19.2026 337.89 19.5129C337.766 19.8232 337.59 20.0976 337.363 20.3335C337.135 20.5694 336.871 20.754 336.574 20.8822C336.277 21.0104 335.965 21.0745 335.643 21.0745C335.322 21.0745 335.01 21.0104 334.713 20.8822C334.414 20.754 334.151 20.5694 333.924 20.3335C333.696 20.0976 333.521 19.8232 333.397 19.5129C333.273 19.2026 333.211 18.8795 333.211 18.5462C333.211 18.2103 333.273 17.8872 333.397 17.5769C333.521 17.2692 333.696 16.9948 333.924 16.7563C334.151 16.5204 334.414 16.3384 334.713 16.2102C335.01 16.082 335.322 16.0178 335.643 16.0178C335.965 16.0178 336.277 16.082 336.574 16.2102C336.871 16.3384 337.135 16.5204 337.363 16.7563C337.59 16.9948 337.766 17.2692 337.89 17.5769C338.014 17.8872 338.075 18.2103 338.075 18.5462Z" fill="black"/>
<path d="M346.181 41.3038L341.316 39.6191L334.832 49.7325L329.97 41.3038L326.727 44.6758L320.242 41.3038L315.38 48.0478L310.516 37.9318L305.655 41.3038L300.313 28.2133C299.573 30.4878 299.17 32.9008 299.17 35.4035C299.17 48.9042 310.783 59.8484 325.106 59.8484C339.429 59.8484 351.042 48.9042 351.042 35.4035C351.042 33.3059 350.733 31.2827 350.206 29.339L346.181 41.3038Z" fill="white"/>
<path d="M336.503 17.9197C336.503 18.3336 336.168 18.6691 335.754 18.6691C335.34 18.6691 335.004 18.3336 335.004 17.9197C335.004 17.5058 335.34 17.1703 335.754 17.1703C336.168 17.1703 336.503 17.5058 336.503 17.9197Z" fill="white"/>
<path d="M315.524 17.7952C315.524 18.2091 315.188 18.5446 314.775 18.5446C314.361 18.5446 314.025 18.2091 314.025 17.7952C314.025 17.3813 314.361 17.0458 314.775 17.0458C315.188 17.0458 315.524 17.3813 315.524 17.7952Z" fill="white"/>
<path d="M267.251 41.7397C267.979 29.3984 260.606 11.2427 250.246 9.96803C239.886 8.69331 230.473 24.8142 229.71 37.1787C229.549 39.7096 229.876 42.2747 230.672 44.7275C231.467 47.1803 232.715 49.4729 234.345 51.4743C235.975 53.4756 237.954 55.1466 240.17 56.3918C242.386 57.637 244.796 58.4321 247.261 58.7316C249.726 59.0311 252.198 58.8291 254.537 58.1373C256.876 57.4454 259.035 56.2772 260.891 54.6994C262.747 53.1216 264.264 51.165 265.356 48.9413C266.447 46.7177 267.091 44.2706 267.251 41.7397Z" fill="white"/>
<path d="M255.046 11.9331C257.208 16.5147 258.357 21.4885 258.408 26.4793C258.445 28.7869 258.629 44.0142 249.051 48.3113C246.427 49.2896 243.577 49.5783 240.748 49.1523C237.919 48.7264 235.197 47.5986 232.819 45.8671C231.838 45.1656 230.915 44.3784 230.06 43.5149C231.145 48.1049 233.777 52.2254 237.475 55.1219C241.172 58.0184 245.689 59.4971 250.197 59.2871C254.704 59.0772 258.902 57.1927 262.021 53.9787C265.139 50.7647 266.971 46.4363 267.179 41.7861C267.809 31.4592 262.756 17.1302 255.046 11.9331Z" fill="#FAF4F1"/>
<path d="M264.101 38.6083C263.487 41.171 261.319 51.2365 252.811 54.2518C250.324 55.0626 247.673 55.321 245.027 55.0104C242.381 54.6998 239.797 53.827 237.441 52.4477C234.877 50.8438 232.663 48.6884 230.958 46.1385C232.611 50.2995 235.554 53.8333 239.308 56.1628C243.062 58.4923 247.404 59.4796 251.625 58.9637C255.846 58.4477 259.697 56.4589 262.548 53.3221C265.4 50.1853 267.083 46.0858 267.324 41.6935C267.516 35.6095 266.369 29.4865 263.967 23.7823C265.113 28.6891 265.183 33.7409 264.173 38.562" fill="#D9D2CE"/>
<path d="M243.532 24.4125L243.062 24.7138C241.048 25.6258 238.203 25.0642 237.226 23.5212C235.835 21.3225 239.417 17.5076 240.378 16.4573C241.445 15.3256 242.636 14.3258 243.929 13.476C245.592 12.4099 247.161 11.8378 247.866 12.4702C248.571 13.1027 247.801 15.9819 246.646 19.0544C245.49 22.1268 244.93 23.5704 243.593 24.4279" fill="white"/>
</svg>
