<svg width="357" height="72" viewBox="0 0 357 72" fill="none" xmlns="http://www.w3.org/2000/svg">
<path d="M284.335 53.4512C284.439 53.1633 284.746 53.022 285.031 53.1148C285.177 53.171 288.276 54.3064 290.123 58.008C298.958 57.2333 299.488 52.6819 299.502 52.4849C299.532 52.1806 299.786 51.9587 300.087 51.9775C300.393 52.006 300.618 52.2681 300.589 52.5723C300.58 52.7558 300.261 56.1223 295.414 57.9929C294.449 58.3655 293.286 58.6677 291.933 58.8859C296.408 60.6273 299.314 64.0217 299.441 64.1753C299.642 64.4019 299.608 64.753 299.376 64.9438C299.334 64.9825 299.279 65.0151 299.23 65.0341C299.013 65.1177 298.767 65.0663 298.614 64.8773C298.58 64.8457 295.994 61.812 292.059 60.1212C295.119 63.5913 296.303 66.8056 296.353 66.9662C296.463 67.2505 296.31 67.5574 296.034 67.6638C296.024 67.6676 296.024 67.6676 296.024 67.6676C295.745 67.7643 295.427 67.6165 295.331 67.3382C295.316 67.299 294.162 64.1631 291.24 60.8428C292.472 64.6804 291.963 67.4671 291.935 67.6015C291.897 67.7964 291.77 67.9356 291.603 68.0002C291.504 68.0383 291.404 68.0431 291.296 68.0283C291.003 67.9725 290.809 67.6757 290.866 67.3834C290.875 67.3464 291.674 63.7271 289.608 59.4903C289.59 59.4413 289.397 59.0879 289.397 59.0313C287.783 55.3185 284.701 54.1657 284.67 54.1439C284.385 54.0511 284.241 53.7352 284.335 53.4512Z" fill="#F4900C"/>
<path d="M319.876 69.2015C319.995 69.1253 322.795 67.6096 326.951 68.1356C319.983 63.3783 318.987 56.1732 318.942 55.8505C318.909 55.5476 319.113 55.2721 319.418 55.2394C319.708 55.1765 319.988 55.4106 320.031 55.7124C320.039 55.7856 321.061 63.2309 328.285 67.7071C328.311 67.6514 328.772 67.0948 328.809 67.0485C331.041 64.2941 334.135 62.8419 334.277 62.7739C334.55 62.6495 334.87 62.763 334.996 63.0454C335.121 63.3173 335.006 63.636 334.734 63.7709C334.704 63.7847 331.915 65.1091 329.684 67.6732C333.346 65.8748 336.979 66.1822 337.141 66.207C337.44 66.2277 337.661 66.4999 337.629 66.7992C337.598 67.0984 337.334 67.3169 337.035 67.2962C337.002 67.2892 333.712 67.0084 330.393 68.548C335.347 69.2842 336.617 70.9231 336.766 71.129C336.931 71.3755 336.872 71.7199 336.624 71.8839C336.546 71.9451 336.464 71.975 336.37 71.9852C336.181 72.0055 335.981 71.9213 335.866 71.7434C335.853 71.7236 334.312 69.9342 328.621 69.4462C328.557 69.4426 327.579 69.3362 327.514 69.3221C323.355 68.5744 320.422 70.1361 320.403 70.1593C320.332 70.188 320.261 70.2168 320.198 70.2236C319.977 70.2473 319.764 70.1433 319.658 69.9434C319.512 69.6738 319.604 69.3468 319.876 69.2015Z" fill="#F4900C"/>
<path d="M319.538 12.4825C318.975 12.6232 315.014 13.6081 308.061 14.929C300.69 16.3293 291.362 20.3033 284.206 30.7344C282.826 32.7401 278.601 31.5669 279.102 33.1308C280.133 36.3955 292.512 62.165 315.727 59.6571C328.261 58.3047 335.179 46.594 337.541 41.71C338.173 40.4031 339.628 36.9719 340.128 35.609C341.602 32.1326 350.158 33.3948 354.116 25.8728C356.179 21.9443 360.206 7.71876 344.318 0.941814C337.512 -1.18194 327.238 0.498645 322.775 6.42311C321.556 8.04116 319.83 11.7508 319.538 12.4825Z" fill="#FFCC4D"/>
<path d="M300.079 37.5499C300.877 39.8569 303.744 39.8009 304.901 39.0722C304.901 39.0722 301.554 40.847 303.78 43.0032C306.771 45.91 323.507 33.0242 322.112 29.0505C320.469 24.3669 300.669 26.7356 300.111 31.2781C299.744 34.2766 303.434 33.6225 303.434 33.6225C303.434 33.6225 299.198 34.9981 300.079 37.5499Z" fill="#FCBA39"/>
<path d="M336.64 16.9851C336.071 15.6743 334.555 15.072 333.248 15.6393C331.94 16.2065 331.344 17.7247 331.912 19.0356C332.481 20.3464 333.997 20.9487 335.305 20.3814C336.612 19.8142 337.208 18.296 336.64 16.9851Z" fill="#24201E"/>
<path d="M335.152 16.5539C334.985 16.1683 334.541 15.9943 334.163 16.1582C333.776 16.3263 333.609 16.765 333.777 17.1505C333.94 17.5264 334.374 17.7046 334.761 17.5365C335.139 17.3726 335.315 16.9298 335.152 16.5539Z" fill="#F4F0ED"/>
<path d="M353.4 12.6493C352.831 11.3384 351.315 10.7362 350.007 11.3034C348.7 11.8707 348.104 13.3889 348.672 14.6998C349.241 16.0106 350.756 16.6129 352.064 16.0456C353.372 15.4784 353.968 13.9601 353.4 12.6493Z" fill="#24201E"/>
<path d="M351.912 12.218C351.745 11.8325 351.301 11.6585 350.923 11.8224C350.536 11.9905 350.369 12.4291 350.536 12.8147C350.699 13.1906 351.133 13.3688 351.521 13.2007C351.899 13.0368 352.075 12.5939 351.912 12.218Z" fill="#F4F0ED"/>
<path d="M346.09 30.3706C344.839 32.1383 337.431 24.3288 338.762 22.2143C340.098 20.0859 343.171 18.995 345.314 19.5625C348.529 21.4187 346.862 29.2955 346.09 30.3706Z" fill="#D75906"/>
<path d="M350.547 24.4405C350.702 26.6006 338.91 25.6098 338.596 23.1307C338.278 20.6378 341.07 17.504 343.086 16.5822C346.748 15.9755 350.461 23.1199 350.547 24.4405Z" fill="#F4900C"/>
<path d="M184.194 53.9142C183.448 44.1688 175.92 30.8355 167.926 31.1926C159.932 31.5498 154.534 45.3783 155.283 55.0487C155.322 57.0925 155.771 59.1239 156.602 61.0112C157.432 62.8985 158.624 64.5998 160.101 66.0047C161.579 67.4097 163.308 68.4869 165.178 69.1668C167.047 69.8467 169.015 70.114 170.954 69.9514C172.902 69.9533 174.812 69.5281 176.56 68.7032C178.307 67.8783 179.854 66.672 181.101 65.1616C182.348 63.6513 183.268 61.8704 183.8 59.9334C184.333 57.9964 184.467 55.9461 184.194 53.9142Z" fill="white"/>
<path d="M171.834 32.0797C173.946 35.4126 175.349 39.1594 175.945 43.0535C176.204 44.8743 177.961 56.7512 171.161 61.2814C169.285 62.3829 167.158 62.972 164.968 62.9968C162.777 63.0217 160.591 62.4815 158.601 61.4239C157.783 61.0118 157.006 60.5088 156.286 59.9238C157.35 63.0424 159.383 65.7352 162.049 67.5581C164.716 69.3811 167.856 70.2252 170.954 69.9514C172.902 69.9533 174.812 69.5281 176.56 68.7032C178.307 67.8783 179.854 66.672 181.101 65.1616C182.348 63.6513 183.268 61.8704 183.8 59.9334C184.333 57.9964 184.467 55.9461 184.194 53.9142C183.566 45.7926 178.227 35.1919 171.834 32.0797Z" fill="#FAF4F1"/>
<path d="M181.456 51.8609C181.423 53.9638 180.614 61.9941 174.585 65.5208C171.793 67.0118 168.564 67.4649 165.408 66.8086C162.252 66.1522 159.348 64.4238 157.154 61.8959C158.493 64.48 160.522 66.6204 162.981 68.0423C165.44 69.4643 168.217 70.1029 170.955 69.8762C172.904 69.8781 174.813 69.4529 176.561 68.6281C178.308 67.8032 179.855 66.5968 181.102 65.0865C182.349 63.5761 183.269 61.7953 183.801 59.8582C184.334 57.9212 184.468 55.8709 184.196 53.8391C183.72 49.1125 182.243 44.5105 179.873 40.3709C181.252 44.0198 181.831 47.9133 181.566 51.7551" fill="#D9D2CE"/>
<path d="M161.424 44.312C161.061 44.3203 160.698 44.2462 160.359 44.0949C160.02 43.9436 159.712 43.7187 159.459 43.4355C158.261 41.7807 160.472 38.4628 161.099 37.4877C162.498 35.434 164.763 33.2847 165.985 33.3623C166.102 33.3268 166.229 33.3348 166.345 33.3851C167.164 33.9258 166.661 36.1492 166.262 38.68C165.862 41.2107 165.441 42.8379 164.063 43.5398C163.283 44.0494 162.363 44.2925 161.425 44.2369" fill="white"/>
<path d="M241.818 62.5498C248.615 52.2238 251.303 32.8135 242.967 26.5318C234.631 20.2501 218.421 29.5086 211.58 39.8367C210.177 41.9488 209.178 44.3339 208.641 46.8559C208.104 49.378 208.039 51.9875 208.451 54.5355C208.862 57.0835 209.741 59.5202 211.039 61.7063C212.336 63.8924 214.025 65.7851 216.011 67.2765C217.996 68.7679 220.238 69.8286 222.61 70.3982C224.981 70.9678 227.435 71.0351 229.832 70.5962C232.228 70.1572 234.52 69.2208 236.576 67.8402C238.633 66.4596 240.414 64.6619 241.818 62.5498Z" fill="white"/>
<path d="M246.143 30.6331C245.726 35.6817 244.235 40.5641 241.784 44.912C240.664 46.9295 233.213 60.2108 222.769 59.1459C220.007 58.6816 217.394 57.5071 215.157 55.7243C212.919 53.9416 211.126 51.6046 209.931 48.9164C209.432 47.8183 209.026 46.675 208.717 45.5001C207.362 50.0176 207.583 54.9021 209.338 59.259C211.094 63.616 214.266 67.1539 218.276 69.225C222.285 71.296 226.863 71.7616 231.17 70.5365C235.478 69.3114 239.227 66.4775 241.732 62.5539C247.439 53.924 250.223 38.9876 246.143 30.6331Z" fill="#FAF4F1"/>
<path d="M240.654 58.2631C238.841 60.1759 231.933 67.8109 223.056 66.17C220.497 65.6295 218.072 64.5284 215.936 62.937C213.799 61.3455 211.997 59.2984 210.646 56.9259C209.227 54.2554 208.386 51.2817 208.184 48.2214C207.536 52.6513 208.319 57.1832 210.406 61.0768C212.493 64.9705 215.76 67.9958 219.674 69.6586C223.588 71.3213 227.918 71.5232 231.955 70.2314C235.993 68.9395 239.5 66.2302 241.903 62.546C245.111 57.3726 247.177 51.4957 247.948 45.3548C246.488 50.1772 244.024 54.588 240.74 58.2591" fill="#D9D2CE"/>
<path d="M229.933 35.6875L229.375 35.7136C227.175 35.4968 224.991 33.5883 224.917 31.7638C224.81 29.164 229.82 27.65 231.177 27.2209C232.666 26.7736 234.198 26.5027 235.743 26.4132C237.716 26.3208 239.361 26.6094 239.655 27.5096C239.95 28.4097 237.844 30.519 235.308 32.6027C232.772 34.6864 231.565 35.6569 229.978 35.7312" fill="white"/>
</svg>
