<svg width="366" height="89" viewBox="0 0 366 89" fill="none" xmlns="http://www.w3.org/2000/svg">
<path d="M352.056 41.1115C354.485 41.6029 356.302 43.5795 356.302 45.9432C356.302 48.3069 354.485 50.2835 352.056 50.775V41.1115Z" fill="#DCBB47"/>
<path d="M266.885 47.1373C265.741 46.5284 264.972 45.3953 264.972 44.0981C264.972 42.8009 265.741 41.6678 266.885 41.0588V47.1373Z" fill="#DCBB47"/>
<path d="M319.452 20.7893C318.615 19.866 316.945 20.1514 315.988 20.4175C315.988 20.4175 320.018 18.0482 318.186 16.6912C315.724 14.8608 301.984 27.3792 303.385 30.1421C305.036 33.3986 319.472 28.6631 319.439 25.2966C319.426 23.9261 316.752 24.7827 316.752 24.7827C316.752 24.7827 320.344 21.7733 319.452 20.7893Z" fill="#FCBA39"/>
<path d="M287.299 22.2081C285.545 24.1776 281.95 32.531 281.95 32.531C281.95 32.531 285.896 51.0365 304.745 47.0608C311.458 40.6625 309.07 34.1421 308.263 30.2334C308.048 29.1875 307.362 26.5331 307.044 25.5136C306.349 22.8243 311.91 19.7325 310.854 13.5696C310.301 10.3526 307.143 -1.7277 294.834 1.42473C289.91 3.23009 284.928 8.11369 284.973 13.5698C284.985 15.0599 287.141 21.6504 287.299 22.2081Z" fill="#FFCC4D"/>
<path d="M304.343 39.2105C303.351 41.0532 300.902 40.3105 300.008 39.3878C300.008 39.3878 302.638 41.7631 300.442 43.1271C297.489 44.9685 284.874 29.5528 286.601 26.3839C288.636 22.6489 305.286 29.5263 305.155 33.6691C305.068 36.4035 301.994 34.9341 301.994 34.9341C301.994 34.9341 305.44 37.1721 304.343 39.2105Z" fill="#FCBA39"/>
<path d="M296.158 12.7084C295.839 11.7068 294.775 11.1532 293.775 11.471C292.776 11.7888 292.227 12.8556 292.545 13.8573C292.864 14.8589 293.928 15.4125 294.928 15.0947C295.927 14.7769 296.476 13.7101 296.158 12.7084Z" fill="#24201E"/>
<path d="M295.101 12.2821C295.007 11.9875 294.696 11.8272 294.407 11.919C294.111 12.0131 293.956 12.3218 294.05 12.6164C294.141 12.9037 294.446 13.0664 294.742 12.9722C295.031 12.8804 295.193 12.5694 295.101 12.2821Z" fill="#F4F0ED"/>
<path d="M308.746 10.7825C308.428 9.78087 307.363 9.22731 306.364 9.54513C305.364 9.86295 304.815 10.9297 305.134 11.9314C305.452 12.933 306.517 13.4866 307.516 13.1688C308.516 12.851 309.065 11.7842 308.746 10.7825Z" fill="#24201E"/>
<path d="M307.69 10.3562C307.596 10.0616 307.284 9.90125 306.995 9.99307C306.699 10.0872 306.545 10.3959 306.638 10.6905C306.73 10.9777 307.034 11.1404 307.33 11.0463C307.619 10.9545 307.781 10.6435 307.69 10.3562Z" fill="#F4F0ED"/>
<path d="M302.079 23.2081C301.032 24.4087 296.191 18.142 297.323 16.6935C298.459 15.2353 300.789 14.6656 302.315 15.2403C304.53 16.8381 302.724 22.4787 302.079 23.2081Z" fill="#D75906"/>
<path d="M305.782 19.1995C305.734 20.792 297.178 19.1893 297.133 17.3516C297.086 15.5035 299.362 13.4178 300.906 12.8932C303.632 12.7217 305.817 18.2266 305.782 19.1995Z" fill="#FF6D1A"/>
<path d="M307.729 38.4586L311.963 34.0098" stroke="black" stroke-width="3" stroke-linecap="round"/>
<rect width="11.4899" height="3.36281" rx="1.6814" transform="matrix(-0.57315 -0.81945 -0.81945 0.57315 317.315 37.1898)" fill="#AD2A2C"/>
<path d="M280.219 33.3942C280.219 29.8871 283.062 27.0438 286.57 27.0438C290.077 27.0438 292.92 29.8871 292.92 33.3942V41.759H280.219V33.3942Z" fill="#2E3444"/>
<path d="M334.041 24.4469C335.121 24.9211 335.875 25.9997 335.875 27.2546V40.7014C335.875 42.3941 334.503 43.7663 332.81 43.7663C331.117 43.7663 329.745 42.3941 329.745 40.7014V27.2546C329.745 26.0912 330.393 25.0792 331.348 24.5601C331.758 22.5128 333.202 20.8091 335.148 20.0665C336.208 20.0665 336.279 22.3275 335.55 22.7015C334.867 23.0978 334.334 23.7144 334.041 24.4469Z" fill="#7B8495"/>
<path d="M334.271 27.858C334.548 27.858 334.771 28.0819 334.771 28.358C334.771 28.6342 334.548 28.858 334.271 28.858V27.858ZM330.096 28.858H329.596V27.858H330.096V28.858ZM334.271 28.858H332.184V27.858H334.271V28.858ZM332.184 28.858H330.096V27.858H332.184V28.858Z" fill="black"/>
<path d="M334.271 29.6984C334.548 29.6984 334.771 29.9222 334.771 30.1984C334.771 30.4745 334.548 30.6984 334.271 30.6984V29.6984ZM330.096 30.6984H329.596V29.6984H330.096V30.6984ZM334.271 30.6984H332.184V29.6984H334.271V30.6984ZM332.184 30.6984H330.096V29.6984H332.184V30.6984Z" fill="black"/>
<path d="M334.271 31.7604C334.548 31.7604 334.771 31.9842 334.771 32.2604C334.771 32.5365 334.548 32.7604 334.271 32.7604V31.7604ZM330.096 32.7604H329.596V31.7604H330.096V32.7604ZM334.271 32.7604H332.184V31.7604H334.271V32.7604ZM332.184 32.7604H330.096V31.7604H332.184V32.7604Z" fill="black"/>
<path d="M353.863 43.8358V51.5056V73.8597H329.918H304.665V37.6627C309.528 37.7563 344.977 40.0011 348.438 40.2817C351.898 40.5623 353.863 41.0299 353.863 43.8358Z" fill="#F0332F"/>
<rect width="19.0187" height="8.88505" transform="matrix(-1 0 0 1 328.202 62.947)" fill="#212C3E"/>
<rect width="19.0187" height="2.62284" transform="matrix(-1 0 0 1 328.202 71.8322)" fill="#3F4A5C"/>
<path d="M266.549 41.0504C269.487 36.9419 274.522 38.4009 277.996 39.1985L266.549 49.0098L266.549 48.1285C266.549 44.9578 266.549 43.6464 266.549 41.0504Z" fill="#F0332F"/>
<path d="M343.92 47.4045C352.631 47.4045 360.118 52.6493 363.394 60.1535C364.442 62.5546 365.298 65.6665 365.425 67.9153C364.067 68.4669 362.561 68.5341 361.978 68.4987C360.437 63.8058 356.024 52.5546 343.92 52.5546C333.507 52.5546 326.763 62.4571 325.041 67.4321C323.133 67.4321 322.903 65.1207 323.318 63.4628C325.63 54.2369 333.977 47.4045 343.92 47.4045Z" fill="#A82A26"/>
<path d="M290.582 34.02C302.562 34.02 312.857 41.2325 317.362 51.552C318.803 54.854 320.088 58.3508 319.39 60.7176C318.708 63.0283 316.217 63.0769 315.414 63.0283C313.296 56.5747 307.227 41.1023 290.582 41.1023C276.262 41.1023 268.32 55.407 265.951 62.2484C263.328 62.2484 261.679 58.3829 262.251 56.103C265.43 43.4158 276.909 34.02 290.582 34.02Z" fill="#A82A26"/>
<path d="M310.591 49.2475C312.709 48.7522 314.378 52.596 315.174 55.1479C315.942 57.6103 316.728 62.4418 314.783 63.2824L291.008 63.2824L310.591 49.2475Z" fill="#2A364C"/>
<path d="M298.564 40.4178C299.695 38.484 304.244 40.7064 306.393 42.2919C308.453 43.8123 311.837 48.1113 310.591 49.2475L291.008 63.2824L298.564 40.4178Z" fill="#2A364C"/>
<path d="M310.184 77.277C312.299 77.8893 313.946 74.1536 314.755 72.0473C315.824 69.2613 316.56 63.936 314.783 63.2824L291.008 63.2824L310.184 77.277Z" fill="#2A364C"/>
<path d="M297.997 85.75C300.193 87.9121 303.674 85.4253 305.756 83.9461C307.931 82.4005 311.424 79.3084 310.184 77.277L291.008 63.2824L297.997 85.75Z" fill="#2A364C"/>
<path d="M283.506 86.3374C283.156 88.1342 288.017 88.5642 290.606 88.5724C293.232 88.5806 297.997 88.3474 297.997 85.75L291.008 63.2824L283.506 86.3374Z" fill="#2A364C"/>
<path d="M283.426 40.4176C282.004 38.7719 278.393 40.8994 276.249 42.4958C274.181 44.0362 270.704 47.4825 271.783 49.306L291.015 63.284L283.426 40.4176Z" fill="#2A364C"/>
<path d="M298.564 40.4178C299.008 38.201 293.685 37.7618 291.015 37.7809C288.454 37.7992 283.086 38.7656 283.426 40.4176L291.015 63.284L298.564 40.4178Z" fill="#2A364C"/>
<path d="M267.275 63.3301C265.205 62.5818 266.069 58.5918 266.653 56.4125C267.426 53.53 269.961 48.7897 271.783 49.306L291.015 63.284L267.275 63.3301Z" fill="#2A364C"/>
<path d="M272.152 77.3493C269.104 77.8068 267.751 73.749 266.937 71.3284C266.086 68.7994 265.078 64.2443 267.275 63.3301L291.015 63.284L272.152 77.3493Z" fill="#2A364C"/>
<path d="M283.506 86.3374C282.323 87.7397 278.161 85.3731 276.062 83.8575C273.932 82.3198 270.625 79.4504 272.152 77.3493L291.015 63.284L283.506 86.3374Z" fill="#2A364C"/>
<circle cx="10.8636" cy="10.8636" r="10.8636" transform="matrix(-1 0 0 1 301.946 51.4069)" fill="#576274"/>
<circle cx="12.1846" cy="12.1846" r="11.6846" transform="matrix(-1 0 0 1 303.267 50.0858)" stroke="#596476"/>
<circle cx="3.31655" cy="3.31655" r="3.31655" transform="matrix(-1 0 0 1 294.399 58.9539)" fill="#979FB2"/>
<path d="M358.408 58.7748C360.013 58.3995 361.278 61.3121 361.881 63.2457C362.463 65.1115 363.058 68.7725 361.584 69.4095L343.569 69.4095L358.408 58.7748Z" fill="#2A364C"/>
<path d="M349.295 52.0843C350.152 50.619 353.598 52.303 355.227 53.5044C356.788 54.6564 359.352 57.9139 358.408 58.7748L343.569 69.4095L349.295 52.0843Z" fill="#2A364C"/>
<path d="M358.1 80.0136C359.702 80.4775 360.95 77.6469 361.563 76.0509C362.373 73.9398 362.931 69.9047 361.584 69.4095L343.569 69.4095L358.1 80.0136Z" fill="#2A364C"/>
<path d="M348.865 86.4338C350.529 88.0721 353.167 86.1878 354.744 85.0669C356.392 83.8958 359.039 81.5529 358.1 80.0136L343.569 69.4095L348.865 86.4338Z" fill="#2A364C"/>
<path d="M337.885 86.8789C337.62 88.2404 341.303 88.5662 343.265 88.5724C345.255 88.5787 348.865 88.4019 348.865 86.4338L343.569 69.4095L337.885 86.8789Z" fill="#2A364C"/>
<path d="M337.824 52.0842C336.747 50.8372 334.011 52.4492 332.386 53.6589C330.819 54.8261 328.185 57.4375 329.002 58.8192L343.575 69.4107L337.824 52.0842Z" fill="#2A364C"/>
<path d="M349.295 52.0843C349.632 50.4046 345.598 50.0718 343.575 50.0863C341.634 50.1001 337.566 50.8324 337.824 52.0842L343.575 69.4107L349.295 52.0843Z" fill="#2A364C"/>
<path d="M325.587 69.4456C324.017 68.8786 324.672 65.8552 325.115 64.204C325.7 62.0198 327.622 58.4279 329.002 58.8192L343.575 69.4107L325.587 69.4456Z" fill="#2A364C"/>
<path d="M329.282 80.0684C326.972 80.415 325.947 77.3403 325.33 75.5062C324.685 73.5898 323.922 70.1383 325.587 69.4456L343.575 69.4107L329.282 80.0684Z" fill="#2A364C"/>
<path d="M337.885 86.8789C336.989 87.9415 333.835 86.1482 332.244 84.9998C330.63 83.8347 328.125 81.6604 329.282 80.0684L343.575 69.4107L337.885 86.8789Z" fill="#2A364C"/>
<circle cx="8.23164" cy="8.23164" r="8.23164" transform="matrix(-1 0 0 1 351.857 60.411)" fill="#576274"/>
<circle cx="9.2326" cy="9.2326" r="8.7326" transform="matrix(-1 0 0 1 352.858 59.4102)" stroke="#596476"/>
<circle cx="2.51304" cy="2.51304" r="2.51304" transform="matrix(-1 0 0 1 346.138 66.1295)" fill="#979FB2"/>
<path d="M135.264 62.2501C130.354 52.7185 117.397 42.7063 109.883 46.7897C102.369 50.8731 103.141 67.4045 108.019 76.8594C108.936 78.9128 110.241 80.7629 111.85 82.2898C113.458 83.8166 115.334 84.9861 117.355 85.7226C119.377 86.4591 121.499 86.7461 123.585 86.565C125.67 86.3839 127.673 85.7388 129.463 84.6715C131.333 83.7661 132.981 82.4462 134.303 80.7964C135.624 79.1466 136.589 77.2035 137.135 75.0919C137.682 72.9804 137.797 70.747 137.475 68.5354C137.153 66.3238 136.399 64.1828 135.264 62.2501Z" fill="white"/>
<path d="M114.014 45.8696C117.473 48.2654 120.431 51.4104 122.678 55.0807C123.71 56.8058 130.505 68.0279 125.932 75.7858C124.606 77.7757 122.819 79.3631 120.729 80.4079C118.639 81.4528 116.309 81.9231 113.945 81.7773C112.983 81.7405 112.022 81.592 111.079 81.3344C113.441 84.0006 116.55 85.784 119.892 86.3906C123.234 86.9973 126.61 86.3909 129.463 84.6715C131.333 83.7661 132.981 82.4462 134.303 80.7964C135.624 79.1466 136.589 77.2035 137.135 75.0919C137.682 72.9804 137.797 70.747 137.475 68.5354C137.153 66.3238 136.399 64.1828 135.264 62.2501C131.166 54.3095 121.484 46.0487 114.014 45.8696Z" fill="#FAF4F1"/>
<path d="M131.753 61.4434C132.626 63.5905 135.305 72.1079 131.04 78.4894C129.003 81.3007 126.101 83.2631 122.791 84.067C119.482 84.8709 115.953 84.4706 112.761 82.9293C115.156 84.9257 118.023 86.1509 120.994 86.4477C123.964 86.7445 126.903 86.0992 129.431 84.5947C131.302 83.6894 132.95 82.3695 134.272 80.7197C135.593 79.0699 136.558 77.1268 137.104 75.0152C137.651 72.9036 137.766 70.6703 137.444 68.4587C137.121 66.2471 136.368 64.1061 135.232 62.1733C132.743 57.6032 129.346 53.6256 125.291 50.5326C128.184 53.5895 130.415 57.2669 131.813 61.2851" fill="#D9D2CE"/>
<path d="M109.291 63.1163C108.947 63.2934 108.566 63.3875 108.176 63.392C107.785 63.3966 107.394 63.3115 107.028 63.1426C105.168 62.0226 105.861 57.6299 106.043 56.3495C106.502 53.6161 107.749 50.3831 108.955 49.8928C109.052 49.8023 109.177 49.7514 109.31 49.7486C110.328 49.9153 110.802 52.4033 111.508 55.1547C112.214 57.9062 112.51 59.7518 111.49 61.105C110.961 61.9846 110.183 62.6592 109.259 63.0396" fill="white"/>
<path d="M184.194 69.9142C183.448 60.1688 175.92 46.8355 167.926 47.1926C159.932 47.5498 154.534 61.3783 155.283 71.0487C155.322 73.0925 155.771 75.1239 156.602 77.0112C157.432 78.8985 158.624 80.5998 160.101 82.0047C161.579 83.4097 163.308 84.4869 165.178 85.1668C167.047 85.8467 169.015 86.114 170.954 85.9514C172.902 85.9533 174.812 85.5281 176.56 84.7032C178.307 83.8783 179.854 82.672 181.101 81.1616C182.348 79.6513 183.268 77.8704 183.8 75.9334C184.333 73.9964 184.467 71.9461 184.194 69.9142Z" fill="white"/>
<path d="M171.834 48.0797C173.946 51.4126 175.349 55.1594 175.945 59.0535C176.204 60.8743 177.961 72.7512 171.161 77.2814C169.285 78.3829 167.158 78.972 164.968 78.9968C162.777 79.0217 160.591 78.4815 158.601 77.4239C157.783 77.0118 157.006 76.5088 156.286 75.9238C157.35 79.0424 159.383 81.7352 162.049 83.5581C164.716 85.3811 167.856 86.2252 170.954 85.9514C172.902 85.9533 174.812 85.5281 176.56 84.7032C178.307 83.8783 179.854 82.672 181.101 81.1616C182.348 79.6513 183.268 77.8704 183.8 75.9334C184.333 73.9964 184.467 71.9461 184.194 69.9142C183.566 61.7926 178.227 51.1919 171.834 48.0797Z" fill="#FAF4F1"/>
<path d="M181.456 67.8609C181.423 69.9638 180.614 77.9941 174.585 81.5208C171.793 83.0118 168.564 83.4649 165.408 82.8086C162.252 82.1522 159.348 80.4238 157.154 77.8959C158.493 80.48 160.522 82.6204 162.981 84.0423C165.44 85.4643 168.217 86.1029 170.955 85.8762C172.904 85.8781 174.813 85.4529 176.561 84.6281C178.308 83.8032 179.855 82.5968 181.102 81.0865C182.349 79.5761 183.269 77.7953 183.801 75.8582C184.334 73.9212 184.468 71.8709 184.196 69.8391C183.72 65.1125 182.243 60.5105 179.873 56.3709C181.252 60.0198 181.831 63.9133 181.566 67.7551" fill="#D9D2CE"/>
<path d="M161.424 60.312C161.061 60.3203 160.698 60.2462 160.359 60.0949C160.02 59.9436 159.712 59.7187 159.459 59.4355C158.261 57.7807 160.472 54.4628 161.099 53.4877C162.498 51.434 164.763 49.2847 165.985 49.3623C166.102 49.3268 166.229 49.3348 166.345 49.3851C167.164 49.9258 166.661 52.1492 166.262 54.68C165.862 57.2107 165.441 58.8379 164.063 59.5398C163.283 60.0494 162.363 60.2925 161.425 60.2369" fill="white"/>
<path d="M241.818 78.5498C248.615 68.2238 251.303 48.8135 242.967 42.5318C234.631 36.2501 218.421 45.5086 211.58 55.8367C210.177 57.9488 209.178 60.3339 208.641 62.8559C208.104 65.378 208.039 67.9875 208.451 70.5355C208.862 73.0835 209.741 75.5202 211.039 77.7063C212.336 79.8924 214.025 81.7851 216.011 83.2765C217.996 84.7679 220.238 85.8286 222.61 86.3982C224.981 86.9678 227.435 87.0351 229.832 86.5962C232.228 86.1572 234.52 85.2208 236.576 83.8402C238.633 82.4596 240.414 80.6619 241.818 78.5498Z" fill="white"/>
<path d="M246.143 46.6331C245.726 51.6817 244.235 56.5641 241.784 60.912C240.664 62.9295 233.213 76.2108 222.769 75.1459C220.007 74.6816 217.394 73.5071 215.157 71.7243C212.919 69.9416 211.126 67.6046 209.931 64.9164C209.432 63.8183 209.026 62.675 208.717 61.5001C207.362 66.0176 207.583 70.9021 209.338 75.259C211.094 79.616 214.266 83.1539 218.276 85.225C222.285 87.296 226.863 87.7616 231.17 86.5365C235.478 85.3114 239.227 82.4775 241.732 78.5539C247.439 69.924 250.223 54.9876 246.143 46.6331Z" fill="#FAF4F1"/>
<path d="M240.654 74.2631C238.841 76.1759 231.933 83.8109 223.056 82.17C220.497 81.6295 218.072 80.5284 215.936 78.937C213.799 77.3455 211.997 75.2984 210.646 72.9259C209.227 70.2554 208.386 67.2817 208.184 64.2214C207.536 68.6513 208.319 73.1832 210.406 77.0768C212.493 80.9705 215.76 83.9958 219.674 85.6586C223.588 87.3213 227.918 87.5232 231.955 86.2314C235.993 84.9395 239.5 82.2302 241.903 78.546C245.111 73.3726 247.177 67.4957 247.948 61.3548C246.488 66.1772 244.024 70.588 240.74 74.2591" fill="#D9D2CE"/>
<path d="M229.933 51.6875L229.375 51.7136C227.175 51.4968 224.991 49.5883 224.917 47.7638C224.81 45.164 229.82 43.65 231.177 43.2209C232.666 42.7736 234.198 42.5027 235.743 42.4132C237.716 42.3208 239.361 42.6094 239.655 43.5096C239.95 44.4097 237.844 46.519 235.308 48.6027C232.772 50.6864 231.565 51.6569 229.978 51.7312" fill="white"/>
</svg>
