<svg width="352" height="63" viewBox="0 0 352 63" fill="none" xmlns="http://www.w3.org/2000/svg">
<g filter="url(#filter0_d_5977_4909)">
<path d="M338.698 43.3041C342.153 29.1952 337.478 6.65088 325.776 2.98291C314.073 -0.685063 299.779 15.9515 296.277 30.0794C295.556 32.9704 295.39 36.0041 295.79 39.0074C296.189 42.0106 297.146 44.9245 298.606 47.5828C300.065 50.2411 301.999 52.5916 304.296 54.5002C306.593 56.4087 309.209 57.838 311.995 58.7063C314.78 59.5747 317.68 59.8651 320.53 59.561C323.379 59.2569 326.122 58.3643 328.601 56.934C331.081 55.5038 333.249 53.564 334.981 51.2254C336.713 48.8867 337.976 46.1951 338.698 43.3041Z" fill="white"/>
<path d="M331.231 6.27085C332.758 12.0237 333.032 18.0154 332.033 23.7938C331.588 26.4687 328.574 44.1059 316.595 47.0429C313.355 47.6175 309.999 47.3473 306.82 46.2557C303.641 45.1641 300.735 43.2842 298.353 40.7793C297.368 39.7606 296.468 38.6552 295.663 37.4763C295.944 43.0107 298.113 48.3304 301.773 52.4613C305.433 56.5922 310.339 59.2579 315.593 59.9702C320.847 60.6826 326.098 59.394 330.383 56.3403C334.668 53.2867 337.701 48.6723 338.927 43.3422C341.843 31.5409 339.039 13.9104 331.231 6.27085Z" fill="#FAF4F1"/>
<path d="M336.043 39.0175C334.791 41.8492 330.153 53.0226 319.681 54.7047C316.635 55.1149 313.517 54.8519 310.525 53.9324C307.533 53.0128 304.732 51.4569 302.3 49.3635C299.677 46.9667 297.575 44.0067 296.145 40.6987C297.174 45.8576 299.827 50.5652 303.671 54.0526C307.516 57.54 312.325 59.601 317.312 59.899C322.3 60.197 327.172 58.7143 331.132 55.6932C335.092 52.6721 337.906 48.2911 339.114 43.2658C340.626 36.2754 340.371 28.9147 338.804 21.8137C339.088 27.727 338.325 33.6215 336.137 38.9793" fill="#D9D2CE"/>
<path d="M315.28 18.2539L314.673 18.5025C312.151 19.1297 308.982 17.8778 308.181 15.8878C307.038 13.0519 311.986 9.40199 313.32 8.39193C314.792 7.30991 316.38 6.40668 318.055 5.69866C320.203 4.81885 322.137 4.49005 322.818 5.37032C323.499 6.2506 322 9.41511 320.013 12.7211C318.027 16.0271 317.074 17.5769 315.346 18.2845" fill="white"/>
</g>
<defs>
<filter id="filter0_d_5977_4909" x="293.578" y="0.467773" width="48.5459" height="61.694" filterUnits="userSpaceOnUse" color-interpolation-filters="sRGB">
<feFlood flood-opacity="0" result="BackgroundImageFix"/>
<feColorMatrix in="SourceAlpha" type="matrix" values="0 0 0 0 0 0 0 0 0 0 0 0 0 0 0 0 0 0 127 0" result="hardAlpha"/>
<feOffset/>
<feGaussianBlur stdDeviation="1"/>
<feComposite in2="hardAlpha" operator="out"/>
<feColorMatrix type="matrix" values="0 0 0 0 0 0 0 0 0 0 0 0 0 0 0 0 0 0 0.25 0"/>
<feBlend mode="normal" in2="BackgroundImageFix" result="effect1_dropShadow_5977_4909"/>
<feBlend mode="normal" in="SourceGraphic" in2="effect1_dropShadow_5977_4909" result="shape"/>
</filter>
</defs>
</svg>
