<svg width="360" height="83" viewBox="0 0 360 83" fill="none" xmlns="http://www.w3.org/2000/svg">
<ellipse opacity="0.2" cx="327.166" cy="76.6129" rx="30.245" ry="5.71241" fill="#868481"/>
<g filter="url(#filter0_d_5977_5009)">
<path d="M348.961 51.7547C347.465 55.1364 341.927 68.4805 329.42 70.4894C325.783 70.9793 322.059 70.6652 318.485 69.567C314.912 68.4688 311.567 66.6106 308.663 64.1106C305.531 61.2482 303.019 57.7131 301.312 53.7624C302.007 57.2503 303.324 60.5654 305.169 63.5412C306.584 65.822 308.308 67.9035 310.3 69.7106C314.891 73.8754 320.635 76.3368 326.591 76.6927C332.548 77.0486 338.366 75.2779 343.095 71.6699C347.824 68.0619 351.185 62.8298 352.629 56.8283C354.434 48.4799 354.13 39.6893 352.258 31.2088C352.285 31.7592 352.304 32.3094 352.315 32.8592C352.445 39.3642 351.483 45.8091 349.073 51.7091" fill="#D9D2CE"/>
<path d="M324.164 26.9574L323.439 27.2544C320.428 28.0034 316.643 26.5083 315.686 24.1317C314.322 20.7449 320.231 16.3859 321.824 15.1797C323.582 13.8874 325.478 12.8087 327.478 11.9632C330.043 10.9125 332.353 10.5198 333.167 11.5711C333.98 12.6223 332.189 16.4016 329.817 20.3499C327.445 24.2981 326.306 26.1489 324.243 26.994" fill="white"/>
<path fill-rule="evenodd" clip-rule="evenodd" d="M300.887 51.7352C301.565 57.6833 304.065 63.3316 308.033 67.8101C312.404 72.7435 318.263 75.927 324.538 76.7778C330.813 77.6286 337.083 76.0896 342.201 72.4427C347.319 68.7958 350.941 63.2851 352.405 56.9195C355.888 42.8256 352.539 21.7702 343.213 12.6465C343.24 12.7485 343.267 12.8504 343.293 12.9525C341.36 10.9614 339.16 9.49118 336.699 8.71987C322.723 4.33933 305.652 24.2078 301.47 41.0802C300.609 44.5305 300.411 48.1509 300.887 51.7352ZM300.887 51.7352L300.888 51.7426C301.365 55.3293 302.507 58.8093 304.251 61.9839C304.541 62.5135 304.848 63.0328 305.169 63.5412C306.776 66.0804 308.761 68.3459 311.046 70.2451C313.79 72.5244 316.914 74.2313 320.241 75.2684C323.567 76.3054 327.031 76.6522 330.434 76.2891C333.837 75.9259 337.112 74.8598 340.073 73.1518C343.035 71.4437 345.624 69.127 347.692 66.3341C349.761 63.5411 351.269 60.3266 352.131 56.874C353.855 49.8346 353.884 41.0369 352.315 32.8592C350.789 24.9092 347.753 17.5452 343.293 12.9525C345.047 19.7292 345.347 26.775 344.172 33.5736C343.64 36.7681 340.041 57.8316 325.735 61.3391C321.865 62.0253 317.858 61.7026 314.061 60.399C310.264 59.0953 306.793 56.8502 303.949 53.8587C302.773 52.6421 301.697 51.322 300.737 49.9141C300.768 50.5236 300.818 51.1309 300.887 51.7352Z" fill="white"/>
<path d="M300.888 51.7426C301.365 55.3293 302.507 58.8093 304.251 61.9839C304.541 62.5135 304.848 63.0328 305.169 63.5412C306.776 66.0804 308.761 68.3459 311.046 70.2451C313.79 72.5244 316.914 74.2313 320.241 75.2684C323.567 76.3054 327.031 76.6522 330.434 76.2891C333.837 75.9259 337.112 74.8598 340.073 73.1518C343.035 71.4437 345.624 69.127 347.692 66.3341C349.761 63.5411 351.269 60.3266 352.131 56.874C353.855 49.8346 353.884 41.0369 352.315 32.8592C350.789 24.9092 347.753 17.5452 343.293 12.9525C345.047 19.7292 345.347 26.775 344.172 33.5736C343.64 36.7681 340.041 57.8316 325.735 61.3391C321.865 62.0253 317.858 61.7026 314.061 60.399C310.264 59.0953 306.793 56.8502 303.949 53.8587C302.773 52.6421 301.697 51.322 300.737 49.9141C300.768 50.5236 300.818 51.1309 300.887 51.7352L300.888 51.7426Z" fill="white"/>
</g>
<g filter="url(#filter1_d_5977_5009)">
<path d="M300.549 52.3208C300.055 48.6118 300.26 44.8651 301.151 41.2947C301.387 40.3406 301.664 39.3772 301.977 38.4092L320.562 67.7651C323.586 74.8427 324.013 77.4779 324.013 77.4779C322.852 77.2801 321.699 77.0036 320.562 76.649C317.122 75.5766 313.891 73.8115 311.054 71.4544C308.217 69.0973 305.829 66.1944 304.026 62.9114C302.224 59.6285 301.042 56.0298 300.549 52.3208Z" fill="#27BEAC"/>
</g>
<g filter="url(#filter2_d_5977_5009)">
<path d="M331.102 77.7046C327.583 78.0802 324.002 77.7215 320.562 76.6491L329.444 70.5835L354.795 49.0692C354.606 52.0839 354.189 54.9761 353.54 57.6272C352.649 61.1976 351.089 64.5218 348.95 67.4101C346.811 70.2983 344.133 72.6939 341.071 74.4603C338.009 76.2266 334.621 77.3291 331.102 77.7046Z" fill="#27BEAC"/>
</g>
<g filter="url(#filter3_d_5977_5009)">
<path d="M326.337 28.5255C326.228 29.2853 325.981 30.0015 325.597 30.6682C325.213 31.3348 324.722 31.9026 324.126 32.3656C323.53 32.8286 322.871 33.1633 322.147 33.3573C321.428 33.5521 320.702 33.5967 319.963 33.4902C319.23 33.3846 318.54 33.1362 317.906 32.7464C317.271 32.3567 316.728 31.8489 316.287 31.2364C315.845 30.6239 315.535 29.9408 315.355 29.1929C315.175 28.4451 315.14 27.6882 315.249 26.9284C315.36 26.1627 315.607 25.4465 315.991 24.7798C316.374 24.119 316.864 23.5513 317.461 23.0824C318.058 22.6194 318.721 22.2913 319.44 22.0965C320.159 21.9017 320.89 21.858 321.623 21.9636C322.362 22.07 323.046 22.3177 323.681 22.7074C324.321 23.098 324.859 23.5991 325.301 24.2116C325.741 24.8299 326.051 25.513 326.232 26.2551C326.413 27.0029 326.447 27.7597 326.337 28.5255Z" fill="url(#paint0_radial_5977_5009)"/>
<path d="M324.433 32.7605L324.126 32.3656L324.433 32.7605C325.082 32.2565 325.615 31.6388 326.03 30.9177C326.446 30.1959 326.714 29.4193 326.832 28.5967C326.951 27.7686 326.914 26.9479 326.719 26.138L326.718 26.1366C326.522 25.334 326.186 24.5924 325.708 23.9214L325.706 23.9192C325.227 23.2539 324.64 22.7068 323.942 22.2809C323.249 21.8558 322.501 21.5848 321.695 21.4687C320.894 21.3534 320.094 21.4013 319.309 21.6139L319.44 22.0965L319.309 21.6139C318.527 21.8259 317.804 22.1835 317.155 22.6875L317.155 22.6875L317.153 22.6891C316.505 23.1979 315.972 23.8143 315.558 24.5291L315.558 24.5291L315.557 24.5303C315.142 25.2523 314.874 26.029 314.755 26.8571C314.636 27.6796 314.674 28.5003 314.869 29.31C315.064 30.119 315.401 30.862 315.881 31.5287C316.36 32.1935 316.952 32.7473 317.644 33.1725C318.337 33.598 319.091 33.8698 319.892 33.9851C320.698 34.1013 321.492 34.0525 322.277 33.8401C323.069 33.628 323.787 33.2621 324.433 32.7605Z" stroke="black"/>
</g>
<g filter="url(#filter4_d_5977_5009)">
<path d="M347.39 31.5581C347.281 32.3179 347.034 33.0341 346.65 33.7008C346.266 34.3674 345.776 34.9352 345.179 35.3982C344.583 35.8612 343.919 36.1951 343.2 36.3899C342.481 36.5847 341.75 36.6284 341.016 36.5228C340.283 36.4172 339.594 36.1687 338.959 35.779C338.319 35.3885 337.781 34.8815 337.34 34.269C336.899 33.6565 336.588 32.9734 336.408 32.2255C336.228 31.4776 336.193 30.7208 336.303 29.961C336.413 29.1953 336.66 28.4791 337.044 27.8124C337.427 27.1516 337.917 26.5839 338.515 26.115C339.111 25.652 339.768 25.3231 340.493 25.1291C341.212 24.9343 341.943 24.8906 342.677 24.9962C343.41 25.1018 344.099 25.3503 344.734 25.74C345.369 26.1297 345.912 26.6317 346.354 27.2442C346.794 27.8625 347.105 28.5456 347.286 29.2877C347.466 30.0355 347.501 30.7923 347.39 31.5581Z" fill="url(#paint1_radial_5977_5009)"/>
<path d="M336.611 27.5617L336.611 27.5617L336.611 27.5629C336.195 28.2849 335.927 29.0616 335.808 29.8897C335.689 30.7122 335.727 31.5329 335.922 32.3426L336.407 32.2259L335.922 32.3426C336.117 33.1516 336.454 33.8946 336.934 34.5613C337.413 35.2249 337.998 35.7785 338.698 36.2055C339.391 36.6308 340.145 36.9025 340.945 37.0177C341.746 37.133 342.546 37.0851 343.331 36.8725C344.115 36.66 344.839 36.2957 345.486 35.7931C346.135 35.2891 346.668 34.6714 347.083 33.9503C347.499 33.2285 347.767 32.4519 347.885 31.6293C348.005 30.8012 347.967 29.9805 347.772 29.1706L347.771 29.1692C347.576 28.3665 347.239 27.625 346.761 26.954L346.761 26.954L346.759 26.9518C346.279 26.2852 345.686 25.738 344.996 25.3139L344.735 25.7382L344.996 25.3139C344.303 24.8884 343.548 24.6166 342.748 24.5013C341.948 24.386 341.148 24.4338 340.363 24.6463C339.573 24.8579 338.856 25.2171 338.208 25.7201L338.208 25.7201L338.206 25.7217C337.558 26.2305 337.026 26.8469 336.611 27.5617Z" stroke="black"/>
</g>
<circle cx="319.377" cy="25.8345" r="1.67127" transform="rotate(8.19656 319.377 25.8345)" fill="black"/>
<circle cx="340.43" cy="28.867" r="1.67127" transform="rotate(8.19656 340.43 28.867)" fill="black"/>
<path d="M317.61 18.5608C318.496 17.2717 321.813 17.0343 322.718 18.6238" stroke="black" stroke-linecap="round"/>
<path d="M346.918 22.7825C346.432 21.2958 343.317 20.1318 342 21.4011" stroke="black" stroke-linecap="round"/>
<circle cx="317.953" cy="34.6522" r="6.12699" transform="rotate(1.24139 317.953 34.6522)" fill="url(#paint2_radial_5977_5009)" stroke="white"/>
<circle cx="6.62699" cy="6.62699" r="6.12699" transform="matrix(-0.999765 0.0216647 0.0216647 0.999765 346.923 31.9805)" fill="url(#paint3_radial_5977_5009)" stroke="white"/>
<path d="M324.306 39.193C325.072 37.0412 326.911 36.2019 329.538 36.5804C332.166 36.9589 333.693 38.2831 333.82 40.5634C333.971 43.2666 330.979 45.2021 328.351 44.8236C325.723 44.4451 323.399 41.7439 324.306 39.193Z" fill="#CB6700"/>
<path d="M336.684 38.4682C336.083 42.6441 332.705 43.0376 328.691 42.4593C324.677 41.8811 321.548 40.5506 322.15 36.3747C322.751 32.2026 326.491 29.2883 330.505 29.8665C334.519 30.4447 337.285 34.2961 336.684 38.4682Z" fill="#F4900C"/>
<path d="M328.33 16.532C330.498 16.532 334.567 15.9998 336.799 12.8026C337.289 12.0995 337.964 10.1915 337.964 10.2841L337.407 11.6184C342.058 11.2127 349.33 16.8366 349.33 16.8366C349.33 16.8366 350.196 15.6951 350.196 14.5273C350.196 10.7385 347.569 8.24875 344.423 8.24871C344.712 5.10943 342.041 2.47532 338.469 2.47532C337.15 2.47532 335.15 3.08874 334.392 4.35167C333.598 2.47532 330.397 0.815601 327.752 0.815601C323.044 0.815601 319.806 3.9842 319.806 8.44855C319.806 12.9129 323.622 16.532 328.33 16.532Z" fill="#DA0813"/>
<g filter="url(#filter5_d_5977_5009)">
<path d="M329.055 70.8441C337.48 59.6742 343.09 53.3067 354.246 41.8169C355.358 43.0183 356.777 44.368 356.736 47.5141C356.721 48.6817 354.887 55.2593 354.21 58.1808L346.739 56.5281C347.491 58.5604 348.289 62.2432 346.964 63.3773C341.66 67.9168 332.568 70.0948 329.055 70.8441Z" fill="#36D7C4"/>
</g>
<g filter="url(#filter6_d_5977_5009)">
<path d="M320.683 68.8444C314.764 55.4888 311.05 47.8524 303.695 32.879C302.218 33.7471 301.38 34.9583 300.486 38.0962C299.194 42.6343 299.699 47.4863 299.513 50.5876C302.43 50.246 303.97 50.4304 306.636 51.0705C305.275 52.8695 304.057 55.8705 305.055 57.3855C309.051 63.4501 317.365 67.0706 320.683 68.8444Z" fill="#36D7C4"/>
</g>
<path d="M319.898 65.6494C308.857 78.3997 293.781 65.0646 297.424 54.9589C302.369 41.2402 291.037 38.125 288.377 37.6985" stroke="#4F537B" stroke-width="2" stroke-linecap="round"/>
<rect x="285.294" y="37.0779" width="4.26095" height="2.91351" rx="1.45676" transform="rotate(-38.5823 285.294 37.0779)" fill="#D9D9D9"/>
<circle cx="284.306" cy="32.4225" r="5.67049" transform="rotate(-38.5823 284.306 32.4225)" fill="#C3C3C3"/>
<circle cx="284.197" cy="32.5093" r="3.61679" transform="rotate(-38.5823 284.197 32.5093)" fill="#4C4C4A"/>
<path d="M304.127 29.9311C302.302 34.9001 302.405 45.4597 316.785 54.9226" stroke="#4F537B" stroke-width="2" stroke-linecap="round"/>
<rect x="301.732" y="24.9823" width="3.08072" height="4.29916" rx="1.54036" transform="rotate(14.4587 301.732 24.9823)" fill="#A5A5A5"/>
<rect x="303.284" y="24.2457" width="4.9027" height="6.84173" rx="2.45135" transform="rotate(14.4587 303.284 24.2457)" fill="#DFDFDF"/>
<path d="M317.594 63.9935L320.447 60.2429C319.268 59.6081 316.788 58.2594 316.298 57.9424C315.686 57.5462 315.262 55.7679 316.159 54.1211C317.056 52.4743 319.831 53.1507 320.624 53.6001C321.259 53.9597 324.76 56.0805 326.431 57.0959L338.082 57.3548L337.519 62.7911L328.304 62.5879C326.955 64.3907 324.188 68.0824 323.913 68.4272C323.57 68.8581 322.014 70.4691 318.778 68.6138C316.669 67.1599 317.11 64.9278 317.594 63.9935Z" fill="#C1C1C1"/>
<ellipse cx="337.871" cy="60.2296" rx="2.44648" ry="2.85514" transform="rotate(-2.0813 337.871 60.2296)" fill="#919191"/>
<path d="M353.156 34.1422C355.673 49.1629 351.435 55.3452 338.314 59.8547" stroke="#4F537B" stroke-width="2" stroke-linecap="round"/>
<rect width="3.08072" height="4.29916" rx="1.54036" transform="matrix(-0.999815 -0.0192439 -0.0192439 0.999815 356.926 29.6621)" fill="#A5A5A5"/>
<rect width="4.9027" height="6.84173" rx="2.45135" transform="matrix(-0.999815 -0.0192439 -0.0192439 0.999815 355.627 28.5371)" fill="#DFDFDF"/>
<path d="M135.264 55.2501C130.354 45.7185 117.397 35.7063 109.883 39.7897C102.369 43.8731 103.141 60.4045 108.019 69.8594C108.936 71.9128 110.241 73.7629 111.85 75.2898C113.458 76.8166 115.334 77.9861 117.355 78.7226C119.377 79.4591 121.499 79.7461 123.585 79.565C125.67 79.3839 127.673 78.7388 129.463 77.6715C131.333 76.7661 132.981 75.4462 134.303 73.7964C135.624 72.1466 136.589 70.2035 137.135 68.0919C137.682 65.9804 137.797 63.747 137.475 61.5354C137.153 59.3238 136.399 57.1828 135.264 55.2501Z" fill="white"/>
<path d="M114.014 38.8696C117.473 41.2654 120.431 44.4104 122.678 48.0807C123.71 49.8058 130.505 61.0279 125.932 68.7858C124.606 70.7757 122.819 72.3631 120.729 73.4079C118.639 74.4528 116.309 74.9231 113.945 74.7773C112.983 74.7405 112.022 74.592 111.079 74.3344C113.441 77.0006 116.55 78.784 119.892 79.3906C123.234 79.9973 126.61 79.3909 129.463 77.6715C131.333 76.7661 132.981 75.4462 134.303 73.7964C135.624 72.1466 136.589 70.2035 137.135 68.0919C137.682 65.9804 137.797 63.747 137.475 61.5354C137.153 59.3238 136.399 57.1828 135.264 55.2501C131.166 47.3095 121.484 39.0487 114.014 38.8696Z" fill="#FAF4F1"/>
<path d="M131.753 54.4434C132.626 56.5905 135.305 65.1079 131.04 71.4894C129.003 74.3007 126.101 76.2631 122.791 77.067C119.482 77.8709 115.953 77.4706 112.761 75.9293C115.156 77.9257 118.023 79.1509 120.994 79.4477C123.964 79.7445 126.903 79.0992 129.431 77.5947C131.302 76.6894 132.95 75.3695 134.272 73.7197C135.593 72.0699 136.558 70.1268 137.104 68.0152C137.651 65.9036 137.766 63.6703 137.444 61.4587C137.121 59.2471 136.368 57.1061 135.232 55.1733C132.743 50.6032 129.346 46.6256 125.291 43.5326C128.184 46.5895 130.415 50.2669 131.813 54.2851" fill="#D9D2CE"/>
<path d="M109.291 56.1163C108.947 56.2934 108.566 56.3875 108.176 56.392C107.785 56.3966 107.394 56.3115 107.028 56.1426C105.168 55.0226 105.861 50.6299 106.043 49.3495C106.502 46.6161 107.749 43.3831 108.955 42.8928C109.052 42.8023 109.177 42.7514 109.31 42.7486C110.328 42.9153 110.802 45.4033 111.508 48.1547C112.214 50.9062 112.51 52.7518 111.49 54.105C110.961 54.9846 110.183 55.6592 109.259 56.0396" fill="white"/>
<path d="M184.194 62.9142C183.448 53.1688 175.92 39.8355 167.926 40.1926C159.932 40.5498 154.534 54.3783 155.283 64.0487C155.322 66.0925 155.771 68.1239 156.602 70.0112C157.432 71.8985 158.624 73.5998 160.101 75.0047C161.579 76.4097 163.308 77.4869 165.178 78.1668C167.047 78.8467 169.015 79.114 170.954 78.9514C172.902 78.9533 174.812 78.5281 176.56 77.7032C178.307 76.8783 179.854 75.672 181.101 74.1616C182.348 72.6513 183.268 70.8704 183.8 68.9334C184.333 66.9964 184.467 64.9461 184.194 62.9142Z" fill="white"/>
<path d="M171.834 41.0797C173.946 44.4126 175.349 48.1594 175.945 52.0535C176.204 53.8743 177.961 65.7512 171.161 70.2814C169.285 71.3829 167.158 71.972 164.968 71.9968C162.777 72.0217 160.591 71.4815 158.601 70.4239C157.783 70.0118 157.006 69.5088 156.286 68.9238C157.35 72.0424 159.383 74.7352 162.049 76.5581C164.716 78.3811 167.856 79.2252 170.954 78.9514C172.902 78.9533 174.812 78.5281 176.56 77.7032C178.307 76.8783 179.854 75.672 181.101 74.1616C182.348 72.6513 183.268 70.8704 183.8 68.9334C184.333 66.9964 184.467 64.9461 184.194 62.9142C183.566 54.7926 178.227 44.1919 171.834 41.0797Z" fill="#FAF4F1"/>
<path d="M181.456 60.8609C181.423 62.9638 180.614 70.9941 174.585 74.5208C171.793 76.0118 168.564 76.4649 165.408 75.8086C162.252 75.1522 159.348 73.4238 157.154 70.8959C158.493 73.48 160.522 75.6204 162.981 77.0423C165.44 78.4643 168.217 79.1029 170.955 78.8762C172.904 78.8781 174.813 78.4529 176.561 77.6281C178.308 76.8032 179.855 75.5968 181.102 74.0865C182.349 72.5761 183.269 70.7953 183.801 68.8582C184.334 66.9212 184.468 64.8709 184.196 62.8391C183.72 58.1125 182.243 53.5105 179.873 49.3709C181.252 53.0198 181.831 56.9133 181.566 60.7551" fill="#D9D2CE"/>
<path d="M161.424 53.312C161.061 53.3203 160.698 53.2462 160.359 53.0949C160.02 52.9436 159.712 52.7187 159.459 52.4355C158.261 50.7807 160.472 47.4628 161.099 46.4877C162.498 44.434 164.763 42.2847 165.985 42.3623C166.102 42.3268 166.229 42.3348 166.345 42.3851C167.164 42.9258 166.661 45.1492 166.262 47.68C165.862 50.2107 165.441 51.8379 164.063 52.5398C163.283 53.0494 162.363 53.2925 161.425 53.2369" fill="white"/>
<path d="M241.818 71.5498C248.615 61.2238 251.303 41.8135 242.967 35.5318C234.631 29.2501 218.421 38.5086 211.58 48.8367C210.177 50.9488 209.178 53.3339 208.641 55.8559C208.104 58.378 208.039 60.9875 208.451 63.5355C208.862 66.0835 209.741 68.5202 211.039 70.7063C212.336 72.8924 214.025 74.7851 216.011 76.2765C217.996 77.7679 220.238 78.8286 222.61 79.3982C224.981 79.9678 227.435 80.0351 229.832 79.5962C232.228 79.1572 234.52 78.2208 236.576 76.8402C238.633 75.4596 240.414 73.6619 241.818 71.5498Z" fill="white"/>
<path d="M246.143 39.6331C245.726 44.6817 244.235 49.5641 241.784 53.912C240.664 55.9295 233.213 69.2108 222.769 68.1459C220.007 67.6816 217.394 66.5071 215.157 64.7243C212.919 62.9416 211.126 60.6046 209.931 57.9164C209.432 56.8183 209.026 55.675 208.717 54.5001C207.362 59.0176 207.583 63.9021 209.338 68.259C211.094 72.616 214.266 76.1539 218.276 78.225C222.285 80.296 226.863 80.7616 231.17 79.5365C235.478 78.3114 239.227 75.4775 241.732 71.5539C247.439 62.924 250.223 47.9876 246.143 39.6331Z" fill="#FAF4F1"/>
<path d="M240.654 67.2631C238.841 69.1759 231.933 76.8109 223.056 75.17C220.497 74.6295 218.072 73.5284 215.936 71.937C213.799 70.3455 211.997 68.2984 210.646 65.9259C209.227 63.2554 208.386 60.2817 208.184 57.2214C207.536 61.6513 208.319 66.1832 210.406 70.0768C212.493 73.9705 215.76 76.9958 219.674 78.6586C223.588 80.3213 227.918 80.5232 231.955 79.2314C235.993 77.9395 239.5 75.2302 241.903 71.546C245.111 66.3726 247.177 60.4957 247.948 54.3548C246.488 59.1772 244.024 63.588 240.74 67.2591" fill="#D9D2CE"/>
<path d="M229.933 44.6875L229.375 44.7136C227.175 44.4968 224.991 42.5883 224.917 40.7638C224.81 38.164 229.82 36.65 231.177 36.2209C232.666 35.7736 234.198 35.5027 235.743 35.4132C237.716 35.3208 239.361 35.6094 239.655 36.5096C239.95 37.4097 237.844 39.519 235.308 41.6027C232.772 43.6864 231.565 44.6569 229.978 44.7312" fill="white"/>
<defs>
<filter id="filter0_d_5977_5009" x="298.634" y="6.10461" width="57.1997" height="72.902" filterUnits="userSpaceOnUse" color-interpolation-filters="sRGB">
<feFlood flood-opacity="0" result="BackgroundImageFix"/>
<feColorMatrix in="SourceAlpha" type="matrix" values="0 0 0 0 0 0 0 0 0 0 0 0 0 0 0 0 0 0 127 0" result="hardAlpha"/>
<feOffset/>
<feGaussianBlur stdDeviation="1"/>
<feComposite in2="hardAlpha" operator="out"/>
<feColorMatrix type="matrix" values="0 0 0 0 0 0 0 0 0 0 0 0 0 0 0 0 0 0 0.25 0"/>
<feBlend mode="normal" in2="BackgroundImageFix" result="effect1_dropShadow_5977_5009"/>
<feBlend mode="normal" in="SourceGraphic" in2="effect1_dropShadow_5977_5009" result="shape"/>
</filter>
<filter id="filter1_d_5977_5009" x="298.287" y="36.4092" width="27.7266" height="43.0687" filterUnits="userSpaceOnUse" color-interpolation-filters="sRGB">
<feFlood flood-opacity="0" result="BackgroundImageFix"/>
<feColorMatrix in="SourceAlpha" type="matrix" values="0 0 0 0 0 0 0 0 0 0 0 0 0 0 0 0 0 0 127 0" result="hardAlpha"/>
<feOffset/>
<feGaussianBlur stdDeviation="1"/>
<feComposite in2="hardAlpha" operator="out"/>
<feColorMatrix type="matrix" values="0 0 0 0 0 0 0 0 0 0 0 0 0 0 0 0 0 0 0.25 0"/>
<feBlend mode="normal" in2="BackgroundImageFix" result="effect1_dropShadow_5977_5009"/>
<feBlend mode="normal" in="SourceGraphic" in2="effect1_dropShadow_5977_5009" result="shape"/>
</filter>
<filter id="filter2_d_5977_5009" x="318.562" y="47.0692" width="38.2329" height="32.7798" filterUnits="userSpaceOnUse" color-interpolation-filters="sRGB">
<feFlood flood-opacity="0" result="BackgroundImageFix"/>
<feColorMatrix in="SourceAlpha" type="matrix" values="0 0 0 0 0 0 0 0 0 0 0 0 0 0 0 0 0 0 127 0" result="hardAlpha"/>
<feOffset/>
<feGaussianBlur stdDeviation="1"/>
<feComposite in2="hardAlpha" operator="out"/>
<feColorMatrix type="matrix" values="0 0 0 0 0 0 0 0 0 0 0 0 0 0 0 0 0 0 0.25 0"/>
<feBlend mode="normal" in2="BackgroundImageFix" result="effect1_dropShadow_5977_5009"/>
<feBlend mode="normal" in="SourceGraphic" in2="effect1_dropShadow_5977_5009" result="shape"/>
</filter>
<filter id="filter3_d_5977_5009" x="313.187" y="19.9077" width="15.2129" height="15.6388" filterUnits="userSpaceOnUse" color-interpolation-filters="sRGB">
<feFlood flood-opacity="0" result="BackgroundImageFix"/>
<feColorMatrix in="SourceAlpha" type="matrix" values="0 0 0 0 0 0 0 0 0 0 0 0 0 0 0 0 0 0 127 0" result="hardAlpha"/>
<feOffset/>
<feGaussianBlur stdDeviation="0.5"/>
<feComposite in2="hardAlpha" operator="out"/>
<feColorMatrix type="matrix" values="0 0 0 0 0 0 0 0 0 0 0 0 0 0 0 0 0 0 0.16 0"/>
<feBlend mode="normal" in2="BackgroundImageFix" result="effect1_dropShadow_5977_5009"/>
<feBlend mode="normal" in="SourceGraphic" in2="effect1_dropShadow_5977_5009" result="shape"/>
</filter>
<filter id="filter4_d_5977_5009" x="334.24" y="22.9403" width="15.2129" height="15.6384" filterUnits="userSpaceOnUse" color-interpolation-filters="sRGB">
<feFlood flood-opacity="0" result="BackgroundImageFix"/>
<feColorMatrix in="SourceAlpha" type="matrix" values="0 0 0 0 0 0 0 0 0 0 0 0 0 0 0 0 0 0 127 0" result="hardAlpha"/>
<feOffset/>
<feGaussianBlur stdDeviation="0.5"/>
<feComposite in2="hardAlpha" operator="out"/>
<feColorMatrix type="matrix" values="0 0 0 0 0 0 0 0 0 0 0 0 0 0 0 0 0 0 0.16 0"/>
<feBlend mode="normal" in2="BackgroundImageFix" result="effect1_dropShadow_5977_5009"/>
<feBlend mode="normal" in="SourceGraphic" in2="effect1_dropShadow_5977_5009" result="shape"/>
</filter>
<filter id="filter5_d_5977_5009" x="326.055" y="39.8169" width="33.6826" height="35.0272" filterUnits="userSpaceOnUse" color-interpolation-filters="sRGB">
<feFlood flood-opacity="0" result="BackgroundImageFix"/>
<feColorMatrix in="SourceAlpha" type="matrix" values="0 0 0 0 0 0 0 0 0 0 0 0 0 0 0 0 0 0 127 0" result="hardAlpha"/>
<feOffset dy="1"/>
<feGaussianBlur stdDeviation="1.5"/>
<feComposite in2="hardAlpha" operator="out"/>
<feColorMatrix type="matrix" values="0 0 0 0 0 0 0 0 0 0 0 0 0 0 0 0 0 0 0.25 0"/>
<feBlend mode="normal" in2="BackgroundImageFix" result="effect1_dropShadow_5977_5009"/>
<feBlend mode="normal" in="SourceGraphic" in2="effect1_dropShadow_5977_5009" result="shape"/>
</filter>
<filter id="filter6_d_5977_5009" x="296.513" y="30.879" width="27.1699" height="41.9653" filterUnits="userSpaceOnUse" color-interpolation-filters="sRGB">
<feFlood flood-opacity="0" result="BackgroundImageFix"/>
<feColorMatrix in="SourceAlpha" type="matrix" values="0 0 0 0 0 0 0 0 0 0 0 0 0 0 0 0 0 0 127 0" result="hardAlpha"/>
<feOffset dy="1"/>
<feGaussianBlur stdDeviation="1.5"/>
<feComposite in2="hardAlpha" operator="out"/>
<feColorMatrix type="matrix" values="0 0 0 0 0 0 0 0 0 0 0 0 0 0 0 0 0 0 0.25 0"/>
<feBlend mode="normal" in2="BackgroundImageFix" result="effect1_dropShadow_5977_5009"/>
<feBlend mode="normal" in="SourceGraphic" in2="effect1_dropShadow_5977_5009" result="shape"/>
</filter>
<radialGradient id="paint0_radial_5977_5009" cx="0" cy="0" r="1" gradientUnits="userSpaceOnUse" gradientTransform="translate(320.793 27.7269) rotate(98.1966) scale(5.82282 5.60106)">
<stop offset="0.675" stop-color="white"/>
<stop offset="0.98" stop-color="#EBEBEB"/>
<stop offset="1" stop-color="#CDCDCD"/>
</radialGradient>
<radialGradient id="paint1_radial_5977_5009" cx="0" cy="0" r="1" gradientUnits="userSpaceOnUse" gradientTransform="translate(341.847 30.7595) rotate(98.1966) scale(5.82282 5.60106)">
<stop offset="0.675" stop-color="white"/>
<stop offset="0.98" stop-color="#EBEBEB"/>
<stop offset="1" stop-color="#CDCDCD"/>
</radialGradient>
<radialGradient id="paint2_radial_5977_5009" cx="0" cy="0" r="1" gradientUnits="userSpaceOnUse" gradientTransform="translate(319.885 32.3511) rotate(133.493) scale(4.94803)">
<stop stop-color="#FED8CC"/>
<stop offset="1" stop-color="white"/>
</radialGradient>
<radialGradient id="paint3_radial_5977_5009" cx="0" cy="0" r="1" gradientUnits="userSpaceOnUse" gradientTransform="translate(8.55986 4.32595) rotate(133.493) scale(4.94803)">
<stop stop-color="#FED8CC"/>
<stop offset="1" stop-color="white"/>
</radialGradient>
</defs>
</svg>
